<?xml version="1.0" encoding="utf-8"?>
<!-- Generator: Adobe Illustrator 16.0.0, SVG Export Plug-In . SVG Version: 6.00 Build 0)  -->
<!DOCTYPE svg PUBLIC "-//W3C//DTD SVG 1.1//EN" "http://www.w3.org/Graphics/SVG/1.1/DTD/svg11.dtd">
<svg version="1.1" xmlns="http://www.w3.org/2000/svg" xmlns:xlink="http://www.w3.org/1999/xlink" x="0px" y="0px" width="128px"
	 height="128px" viewBox="0 0 128 128" enable-background="new 0 0 128 128" xml:space="preserve">
<g id="Layer_1">
</g>
<g id="Layer_2">
</g>
<g id="Layer_3">
	<g>
		<path fill-rule="evenodd" clip-rule="evenodd" fill="#0000FF" d="M89.839,55.41c1.06-0.587,2.088-1.24,3.184-1.749
			c2.48-1.149,4.472-0.243,5.322,2.374c0.817,2.516,0.652,5.039-0.318,7.441c-0.665,1.644-1.597,3.193-2.522,4.714
			c-1.544,2.533-3.227,4.983-4.755,7.525c-0.565,0.94-0.861,2.045-1.279,3.075c-0.771,1.905-1.393,3.889-2.347,5.698
			c-1.461,2.772-1.276,5.678-1.068,8.604c0.171,2.386,1.291,4.346,2.61,6.347c2.198,3.331,1.315,6.654-2.892,7.54
			c-3.626,0.764-7.125,0.224-9.828-2.44c-4.153-4.095-8.844-4.534-14.109-2.823c-4.199,1.365-8.444,2.596-12.685,3.833
			c-1.571,0.458-3.188,0.593-4.798,0.099c-1.559-0.478-2.807-1.341-3.435-2.903c-0.6-1.492-0.549-2.916,0.643-4.133
			c0.757-0.771,1.546-1.51,2.318-2.264c1.445-1.407,2.934-2.773,4.316-4.239c0.961-1.017,2.102-1.636,3.374-2.152
			c0.983-0.398,1.846-1.086,2.811-1.541c1.129-0.531,2.311-0.947,3.534-1.28c-0.593,2.652-2.299,4.236-4.611,5.047
			c-1.744,0.613-3.047,1.564-4.154,3.027c-0.761,1.002-1.868,1.739-2.815,2.601c-0.849,0.773-1.722,1.522-2.523,2.341
			c-0.773,0.787-0.659,1.748,0.251,2.397c0.958,0.684,2.062,0.881,3.188,0.626c1.906-0.432,3.806-0.901,5.686-1.438
			c3.824-1.095,7.602-2.366,11.455-3.338c4.718-1.189,8.855,0.206,12.434,3.393c1.273,1.133,2.563,2.294,4.307,2.514
			c1.354,0.169,2.766,0.189,4.115,0.006c1.735-0.236,2.132-1.072,1.562-2.729c-0.107-0.312-0.265-0.632-0.479-0.879
			c-2.812-3.22-3.114-7.11-3.104-11.133c0.006-2.582,0.748-4.891,1.926-7.144c0.638-1.218,1.153-2.523,1.546-3.842
			c1.316-4.423,3.852-8.152,6.534-11.812c1.37-1.869,2.531-3.878,2.769-6.218c0.126-1.244-0.082-2.537-0.27-3.791
			c-0.126-0.849-0.775-1.103-1.521-0.682c-1.351,0.762-2.689,1.551-3.987,2.397c-2.118,1.385-4.176,2.863-6.316,4.212
			c-0.515,0.324-1.262,0.262-1.888,0.431c-0.76,0.204-1.504,0.464-2.492,0.773c0.882-1.153,1.543-2.191,2.372-3.069
			c1.275-1.348,2.753-2.509,3.982-3.894c1.455-1.636,1.62-3.582,0.758-5.587c-1.245-2.896-3.312-5.038-6.02-6.63
			c-0.456-0.268-0.979-0.915-0.959-1.365c0.022-0.519,0.5-1.193,0.975-1.485c2.203-1.361,4.695-1.759,7.23-2.087
			c3.276-0.423,6.569-0.863,9.775-1.634c1.68-0.402,3.288-1.377,4.749-2.359c1.734-1.164,2.312-3.112,2.562-5.096
			c0.159-1.255-0.668-2.124-2.033-2.298c-4.464-0.568-8.948-0.506-13.3,0.545c-5.409,1.307-10.75,2.956-15.704,5.569
			c-1.595,0.843-3.116,1.901-4.471,3.09c-0.848,0.743-1.388,1.878-1.941,2.903c-0.367,0.674-0.777,1.063-1.537,1.299
			c-1.171,0.361-2.347,0.821-3.387,1.458c-1.012,0.618-1.95,0.898-3.042,0.392c-2.722-1.267-5.565-2.331-8.127-3.866
			c-3.983-2.387-8.256-3.648-12.806-4.1c-6.163-0.611-12.022,0.551-17.586,3.246c-1.353,0.656-2.41,1.668-3.039,3.011
			c-0.342,0.73-0.471,1.602-0.512,2.419c-0.041,0.812,0.441,1.334,1.293,1.566c2.539,0.693,5.06,0.644,7.617,0.094
			c1.009-0.217,2.071-0.298,3.105-0.271c1.045,0.028,1.643,0.69,1.584,1.479c-0.059,0.799-0.747,1.165-1.794,1.228
			c-1.404,0.084-2.804,0.308-4.198,0.507c-2.446,0.35-4.851,0.173-7.222-0.498c-1.788-0.507-2.905-1.875-3.065-3.734
			c-0.312-3.617,1.57-6.051,4.416-7.838c2.927-1.84,6.254-2.642,9.599-3.368c6.252-1.357,12.359-0.688,18.371,1.243
			c1.273,0.409,2.459,1.099,3.669,1.691c2.969,1.451,5.933,2.915,8.892,4.389c0.624,0.312,1.146,0.373,1.729-0.145
			c0.418-0.372,0.956-0.726,1.49-0.832c1.59-0.314,2.447-1.334,3.273-2.647c1.242-1.975,3.121-3.344,5.16-4.462
			c4.499-2.467,9.35-4.01,14.215-5.544c5.611-1.771,11.328-2.092,17.131-1.571c3.753,0.336,5.57,3.013,4.694,6.685
			c-1.133,4.744-4.462,7.277-8.854,8.37c-3.719,0.924-7.578,1.28-11.374,1.898c-1.152,0.188-2.298,0.411-3.693,0.662
			c3.779,3.342,6.908,6.729,6.169,12.028c-0.002,0.076-0.002,0.152-0.002,0.228C89.727,55.48,89.782,55.445,89.839,55.41z"/>
		<path fill-rule="evenodd" clip-rule="evenodd" fill="#0000FF" d="M60.181,71.736c-0.949,0.152-1.895,0.352-2.85,0.446
			c-0.631,0.062-0.917,0.246-1.188,0.908c-0.662,1.616-2.076,2.567-3.648,3.17c-1.315,0.506-2.719,0.777-4.073,1.187
			c-1.515,0.458-3.053,0.869-4.519,1.454c-1.644,0.656-1.788,1.633-0.585,2.948c1.368,1.495,4.447,1.963,6.485,0.841
			c3.032-1.671,5.988-1.307,9.021-0.018c0.748,0.318,1.66,0.25,2.571,0.369c-0.467,0.325-0.979,0.802-1.582,1.072
			c-0.795,0.356-1.649,0.612-2.503,0.792c-0.389,0.081-0.881-0.032-1.249-0.213c-1.479-0.729-3.002-0.712-4.372,0.046
			c-2.103,1.165-4.317,1.375-6.579,1.022c-2.463-0.384-4.135-1.948-5.063-4.211c-0.727-1.773,0.249-3.91,2.297-4.823
			c1.713-0.765,3.549-1.265,5.348-1.83c1.156-0.365,2.369-0.56,3.503-0.976c0.795-0.293,1.498-0.831,2.225-1.412
			c-2.015-0.353-3.563-1.474-4.962-2.69c-3.897-3.396-5.271-7.617-3.733-12.663c0.797-2.609,1.62-5.201,3.31-7.565
			c-3.167-0.604-6.154-1.858-9.47-0.986c0.081,0.526,0.167,1.012,0.228,1.498c0.104,0.807,0.156,1.523-0.59,2.196
			c-0.438,0.396-0.55,1.199-0.716,1.845c-1.557,6.009-3.083,12.025-4.646,18.032c-0.254,0.978-0.564,1.958-0.999,2.865
			c-1.082,2.263-0.72,4.542-0.227,6.837c0.068,0.32,0.173,0.707,0.397,0.911c0.765,0.685,0.431,1.229-0.145,1.758
			c-0.631,0.58-1.517,0.588-2.1-0.01c-0.275-0.282-0.454-0.659-0.676-0.991c-0.495,0-1.007,0-1.401,0
			c1.211-3.294,2.559-6.483,3.558-9.777c1.69-5.568,2.853-11.243,2.909-17.117c0.016-1.573,0.688-3.134,0.988-4.712
			c0.101-0.532-0.02-1.105-0.036-1.66c-0.004-0.194-0.042-0.4,0.008-0.583c0.341-1.265,0.348-1.264-0.382-2.38
			c0.526-0.322,1.014-0.774,1.585-0.948c2.798-0.851,5.635-0.997,8.496-0.287c1.212,0.301,2.439,0.54,3.646,0.854
			c1.569,0.409,2.277,1.232,2.501,2.686c0.127,0.826-0.082,1.438-0.778,1.93c-0.318,0.224-0.618,0.546-0.79,0.893
			c-1.35,2.707-2.432,5.525-2.559,8.573c-0.122,2.925,1.456,5.118,3.538,6.961c1.654,1.465,3.683,2.218,5.788,2.794
			c0.505,0.139,0.956,0.475,1.462,0.62c0.422,0.122,0.886,0.135,1.33,0.127c0.389-0.007,0.775-0.11,1.163-0.171
			C60.138,71.477,60.16,71.606,60.181,71.736z"/>
		<path fill-rule="evenodd" clip-rule="evenodd" fill="#0000FF" d="M77.771,54.372c-2.149-0.007-3.707-1.465-3.7-3.462
			c0.005-1.982,1.836-3.889,3.698-3.85c1.789,0.037,3.538,2.046,3.527,4.054C81.287,52.998,79.793,54.38,77.771,54.372z"/>
		<path fill-rule="evenodd" clip-rule="evenodd" fill="#0000FF" d="M55.391,61.46c-2.21-0.012-3.566-1.2-3.568-3.122
			c-0.002-2.003,2.034-3.794,4.312-3.796c1.683-0.001,3.232,1.624,3.233,3.39C59.369,59.781,57.462,61.473,55.391,61.46z"/>
		<path fill-rule="evenodd" clip-rule="evenodd" fill="#0000FF" d="M63.593,79.771c0.276-1.919,1.761-3.938,3.781-3.214
			c0.474,0.17,0.952,0.344,1.398,0.574c0.933,0.479,1.856,0.718,2.905,0.342c0.713-0.257,1.476-0.159,1.858,0.566
			c0.187,0.35,0.112,0.896-0.006,1.309c-0.033,0.119-0.643,0.16-0.96,0.095c-1.249-0.256-2.475-0.692-3.733-0.831
			C67.005,78.408,65.115,78.23,63.593,79.771z"/>
		<path fill-rule="evenodd" clip-rule="evenodd" fill="#0000FF" d="M89.839,55.41c-0.057,0.035-0.112,0.07-0.169,0.105
			c0-0.075,0-0.151,0.002-0.228C89.728,55.328,89.783,55.37,89.839,55.41z"/>
	</g>
</g>
<g id="Layer_4">
	<g>
		<g>
			<path fill="#0000FF" d="M64,3c33.636,0,61,27.364,61,61s-27.364,61-61,61S3,97.636,3,64S30.364,3,64,3 M64,0
				C28.654,0,0,28.654,0,64c0,35.347,28.654,64,64,64c35.347,0,64-28.653,64-64C128,28.654,99.347,0,64,0L64,0z"/>
		</g>
	</g>
</g>
</svg>
