<?xml version="1.0" encoding="utf-8"?>
<!-- Generator: Adobe Illustrator 16.0.0, SVG Export Plug-In . SVG Version: 6.00 Build 0)  -->
<!DOCTYPE svg PUBLIC "-//W3C//DTD SVG 1.1//EN" "http://www.w3.org/Graphics/SVG/1.1/DTD/svg11.dtd">
<svg version="1.1" xmlns="http://www.w3.org/2000/svg" xmlns:xlink="http://www.w3.org/1999/xlink" x="0px" y="0px" width="128px"
	 height="128px" viewBox="0 0 128 128" enable-background="new 0 0 128 128" xml:space="preserve">
<g id="Layer_1">
</g>
<g id="Layer_2">
</g>
<g id="Layer_3">
	<g>
		<g>
			<g>
				<path fill="#008800" d="M64,3c33.636,0,61,27.364,61,61s-27.364,61-61,61S3,97.636,3,64S30.364,3,64,3 M64,0
					C28.654,0,0,28.654,0,64c0,35.347,28.654,64,64,64c35.347,0,64-28.653,64-64C128,28.654,99.347,0,64,0L64,0z"/>
			</g>
		</g>
		<g>
			<path fill-rule="evenodd" clip-rule="evenodd" fill="#008800" d="M48.798,86.24c-4.694-0.238-8.585-2.594-12.706-4.219
				c-1.433-0.565-2.772-1.55-3.93-2.592c-2.463-2.214-2.211-5.532,0.425-7.561c2.319-1.784,4.808-2.959,7.873-2.688
				c1.632,0.145,3.3-0.027,4.945-0.152c0.674-0.052,1.328-0.36,2.142-0.595c-1.083-0.662-1.955-1.279-2.897-1.756
				c-4.157-2.103-6.128-8.063-3.306-12.709c1.017-1.674,2.207-3.276,3.525-4.721c0.87-0.952,2.111-1.565,3.262-2.384
				c-0.104-0.117-0.268-0.374-0.494-0.553c-1.957-1.545-3.847-3.188-5.91-4.578c-1.97-1.327-4.028-2.615-6.214-3.513
				c-4.421-1.815-7.561-7.439-7.274-12.229c0.113-1.881,1.25-3.188,2.541-4.345c1.674-1.502,3.436-2.905,5.176-4.331
				c0.865-0.709,1.858-0.934,2.969-0.707c2.935,0.597,5.377,2.203,7.818,3.801c3.167,2.074,5.688,4.765,7.689,7.988
				c1.442,2.325,3.058,4.542,4.588,6.812c0.412,0.611,0.796,1.242,1.189,1.866c0.292,0.465,0.312,1.136,1.222,0.981
				c0.858-0.145,1.557-0.257,1.719-1.286c0.229-1.455,0.594-2.892,0.76-4.352c0.64-5.646,3.576-9.897,8.021-13.187
				c2.08-1.538,4.191-3.06,6.873-3.526c4.754-0.827,8.4,1.254,10.021,5.801c0.106,0.299,0.552,0.562,0.896,0.677
				c2.193,0.735,4.435,1.339,6.598,2.154c1.827,0.688,3.342,1.911,4.01,3.813c1.091,3.107,2.117,6.242,3.041,9.404
				c0.897,3.075-0.304,5.324-3.135,6.833c0.183-1.3,0.137-2.532,0.908-3.773c0.704-1.133,1.134-2.642,1.116-3.977
				c-0.055-4.16-1.561-7.747-5.019-10.289c-0.608-0.446-1.366-0.719-2.09-0.966c-0.371-0.126-0.999-0.192-1.207,0.016
				c-0.893,0.896-1.735,0.346-2.618,0.091c-0.736-0.212-1.486-0.375-2.257-0.565c-1.261,3.92-4.666,5.812-7.633,7.899
				c-4.062,2.859-5.232,7.048-6.56,11.347c1.131,0.365,2.099,0.668,3.06,0.992c1.539,0.519,2.872,1.301,3.68,2.803
				c0.104,0.191,0.51,0.355,0.741,0.318c0.62-0.1,1.252-0.246,1.823-0.5c0.703-0.312,1.199-0.187,1.538,0.354
				c-0.614,0.887-1.123,1.824-1.825,2.581c-0.906,0.976-3.947,0.532-4.442-0.72c-0.592-1.499-1.745-2.011-3.083-2.416
				c-0.538-0.162-1.071-0.454-1.612-0.468c-1.448-0.039-1.96-1.229-2.702-2.103c-0.215-0.253-0.217-0.831-0.105-1.194
				c0.995-3.255,2.06-6.498,3.921-9.376c0.687-1.062,1.608-2.021,2.581-2.839c2.228-1.878,4.584-3.603,6.818-5.474
				c0.642-0.536,1.229-1.281,0.423-2.27c-0.215-0.262-0.198-0.963,0.005-1.265c0.407-0.608,0.208-1.03-0.113-1.521
				c-1.869-2.85-5.348-3.611-8.531-1.867c-3.188,1.747-6.044,3.94-8.003,7.015c-0.995,1.562-1.69,3.41-2.107,5.224
				c-0.603,2.624-0.842,5.333-1.211,8.009c-0.121,0.883-0.582,1.287-1.461,1.331c-1.359,0.069-2.718,0.151-4.07,0.296
				c-1.058,0.113-1.634-0.279-2.021-1.241c-0.438-1.093-0.942-2.18-1.576-3.169c-1.61-2.511-3.346-4.942-4.963-7.448
				c-2.896-4.487-7.067-7.344-11.843-9.468c-1.146-0.511-2.07-0.464-3.028,0.501c-1.061,1.066-2.289,1.973-3.478,2.906
				c-2.605,2.045-3.014,4.341-1.328,7.664c1.165,2.295,2.751,4.088,5.248,5.065c3.237,1.266,6.066,3.226,8.653,5.548
				c0.833,0.748,1.836,1.308,2.672,2.053c0.909,0.811,1.798,1.673,2.543,2.631c0.706,0.905,0.545,1.775-0.348,2.507
				c-0.618,0.507-1.365,0.854-2.022,1.316c-0.791,0.556-1.646,1.068-2.296,1.765c-0.834,0.894-1.501,1.946-2.227,2.94
				c-2.704,3.708-1.039,8.29,2.019,9.719c0.693,0.323,1.271,0.992,1.776,1.606c1.261,1.531,1.961,2.079,4.05,2.784
				c-0.578,0.49-1.002,0.991-1.541,1.283c-2.184,1.181-4.46,2.063-7.02,1.947c-1.157-0.054-2.33,0.086-3.479-0.027
				c-2.307-0.229-4.082,0.865-5.75,2.192c-1.3,1.032-1.324,2.338-0.026,3.375c1.004,0.803,2.116,1.526,3.282,2.061
				c2.361,1.082,4.74,2.18,7.211,2.948c1.814,0.564,3.786,0.633,5.693,0.883c0.552,0.073,1.121,0.011,1.771,0.011
				c-0.056,0.258-0.081,0.448-0.14,0.628c-0.837,2.531-1.752,5.041-2.501,7.598c-0.707,2.414-1.612,4.776-1.716,7.357
				c-0.051,1.275-1.144,2.049-2.176,2.694c-2.108,1.317-4.233,2.61-6.527,4.021c1.021,0.197,1.89,0.477,2.769,0.515
				c2.412,0.104,4.837,0.25,7.238,0.09c1.24-0.083,2.511-0.643,3.643-1.229c2.21-1.146,4.296-2.527,6.506-3.673
				c1.063-0.552,2.317-0.722,3.431-1.191c0.75-0.317,1.455-0.798,2.096-1.311c1.609-1.287,3.166-2.642,4.762-3.947
				c0.209-0.171,0.522-0.215,0.869-0.16c-1.606,1.688-3.215,3.375-4.95,5.198c1.203,0.128,2.223,0.071,3.129,0.366
				c2.225,0.724,4.481,1.439,6.576,2.463c5.541,2.705,10.369,0.318,13.177-4.077c0.657-1.028,1.171-2.167,1.613-3.308
				c0.751-1.935,2.166-3.024,4.076-3.663c1.068-0.356,2.079-0.891,3.36-1.451c-2.71-1.862-5.253-2.311-8.011-1.34
				c-2.159,0.76-3.84,2.165-5.251,3.924c-0.683,0.851-1.359,1.705-2.023,2.568c-0.709,0.922-1.509,1.177-2.244,0.691
				c-0.729-0.48-0.934-1.414-0.274-2.333c0.726-1.014,1.649-1.886,2.481-2.823c0.278-0.312,0.541-0.637,0.889-1.049
				c-1.457-0.444-2.426-1.321-2.815-2.744c-0.07-0.256-0.155-0.599-0.046-0.8c1.272-2.346,1.16-4.883,1.084-7.419
				c-0.007-0.232-0.001-0.465-0.001-0.698c0.124-0.032,0.247-0.065,0.371-0.098c0.162,0.578,0.401,1.146,0.473,1.734
				c0.224,1.849,0.38,3.705,0.571,5.557c0.093,0.893,0.393,1.605,1.392,1.877c0.366,0.099,0.657,0.478,1.017,0.756
				c2.258-1.479,4.676-2.529,7.469-2.454c2.33,0.062,4.411,0.855,6.28,2.18c1.782,1.265,1.861,3.149,0.105,4.466
				c-1.128,0.846-2.423,1.548-3.745,2.034c-1.325,0.487-2.205,1.176-2.725,2.519c-1.31,3.388-3.306,6.247-6.508,8.17
				c-3.536,2.123-7.176,2.225-10.918,0.722c-1.562-0.627-3.035-1.495-4.622-2.037c-2.683-0.915-5.353-1.192-8.206-0.248
				c-2.671,0.885-5.016,2.275-7.354,3.711c-3.111,1.91-6.459,2.412-10.014,2.135c-2.81-0.219-5.604-0.468-8.224-1.645
				c-0.827-0.37-1.656-0.725-1.71-1.781c-0.056-1.096,0.741-1.546,1.569-2.022c2.617-1.505,5.204-3.063,7.801-4.604
				c0.61-0.361,0.936-0.838,0.976-1.61c0.113-2.202,0.741-4.268,1.751-6.242c0.652-1.274,1.143-2.635,1.662-3.975
				C48.752,87.107,48.737,86.672,48.798,86.24z"/>
			<path fill-rule="evenodd" clip-rule="evenodd" fill="#008800" d="M99.51,53.121c0.078,0.609,0.147,1.405,0.286,2.188
				c0.429,2.412-0.033,4.707-1.087,6.848c-0.378,0.767-1.159,1.397-1.884,1.911c-0.793,0.563-1.784,0.843-2.595,1.388
				c-0.885,0.595-1.837,1.224-2.452,2.062c-1.676,2.287-3.183,4.698-4.773,7.049c-0.497,0.736-1.166,0.932-2.071,0.484
				c0.527-1.042,1.056-2.024,1.527-3.034c0.669-1.431,1.269-2.894,1.947-4.319c0.958-2.01,2.242-3.734,4.361-4.671
				c0.257-0.113,0.512-0.233,0.765-0.354c3.076-1.458,4.305-4.299,3.337-7.604c-0.254-0.868-0.759-1.135-1.574-0.88
				c-0.568,0.178-1.179,0.316-1.669,0.631c-2.363,1.51-4.716,3.036-7.023,4.628c-2.021,1.395-3.94,2.94-5.983,4.3
				c-0.794,0.528-1.782,0.845-2.727,1.047c-1.004,0.214-1.862-0.566-1.899-1.502c-0.036-0.906,0.534-1.354,1.662-1.438
				c0.471-0.035,0.984-0.168,1.378-0.414c1.338-0.84,2.646-1.729,3.938-2.638c2.811-1.976,5.564-4.036,8.427-5.933
				c1.03-0.684,2.271-1.134,3.478-1.449c1.521-0.397,2.925-0.023,3.978,1.277C98.996,52.873,99.249,52.957,99.51,53.121z"/>
			<path fill-rule="evenodd" clip-rule="evenodd" fill="#008800" d="M50.783,60.457c-1.561,0.001-2.992-0.894-3.531-2.21
				c-0.589-1.433-0.293-3.051,1.022-4.085c0.904-0.71,1.995-1.308,3.097-1.606c1.248-0.339,2.11,0.363,2.547,1.604
				c0.104,0.295,0.241,0.58,0.371,0.867C55.563,57.822,53.866,60.452,50.783,60.457z"/>
			<path fill-rule="evenodd" clip-rule="evenodd" fill="#008800" d="M71.247,51.464c1.667,0,3.014,1.213,3.033,2.732
				c0.023,1.847-1.713,3.621-3.545,3.624c-1.938,0.002-3.684-1.686-3.718-3.596C66.987,52.505,68.58,51.465,71.247,51.464z"/>
			<path fill-rule="evenodd" clip-rule="evenodd" fill="#008800" d="M74.677,90.912c0.406,0.545,0.379,1.395-0.546,1.897
				c-0.986,0.537-2.076,0.887-3.204,1.161C72.175,92.953,73.422,91.936,74.677,90.912z"/>
		</g>
	</g>
</g>
<g id="Layer_4">
</g>
</svg>
