<?xml version="1.0" encoding="UTF-8" standalone="no"?>
<!-- Created with Inkscape (http://www.inkscape.org/) -->

<svg
   width="953.98682"
   height="146.87016"
   viewBox="0 0 953.98681 146.87017"
   version="1.1"
   id="svg1"
   inkscape:version="1.3.2 (091e20ef0f, 2023-11-25, custom)"
   sodipodi:docname="logo.svg"
   xmlns:inkscape="http://www.inkscape.org/namespaces/inkscape"
   xmlns:sodipodi="http://sodipodi.sourceforge.net/DTD/sodipodi-0.dtd"
   xmlns:xlink="http://www.w3.org/1999/xlink"
   xmlns="http://www.w3.org/2000/svg"
   xmlns:svg="http://www.w3.org/2000/svg">
  <sodipodi:namedview
     id="namedview1"
     pagecolor="#ffffff"
     bordercolor="#000000"
     borderopacity="0.25"
     inkscape:showpageshadow="false"
     inkscape:pageopacity="0.0"
     inkscape:pagecheckerboard="false"
     inkscape:deskcolor="#ffffff"
     inkscape:document-units="px"
     showgrid="false"
     inkscape:zoom="0.69296465"
     inkscape:cx="533.93777"
     inkscape:cy="136.37059"
     inkscape:current-layer="svg1"
     showborder="true">
    <inkscape:grid
       id="grid1"
       units="px"
       originx="-35.831841"
       originy="-437.83807"
       spacingx="16"
       spacingy="16"
       empcolor="#000000"
       empopacity="0.10196078"
       color="#000000"
       opacity="0.02352941"
       empspacing="4"
       dotted="false"
       gridanglex="30"
       gridanglez="30"
       visible="false"
       snapvisiblegridlinesonly="true" />
    <inkscape:page
       x="0"
       y="0"
       width="953.98682"
       height="146.87016"
       id="page5"
       margin="0"
       bleed="0" />
  </sodipodi:namedview>
  <defs
     id="defs1">
    <linearGradient
       id="linearGradient12"
       inkscape:collect="always">
      <stop
         style="stop-color:#000000;stop-opacity:1;"
         offset="0"
         id="stop12" />
      <stop
         style="stop-color:#ffffff;stop-opacity:1;"
         offset="1"
         id="stop13" />
    </linearGradient>
    <clipPath
       clipPathUnits="userSpaceOnUse"
       id="clipPath14">
      <g
         inkscape:label="Clip"
         id="use14">
        <g
           id="g17"
           style="stroke:url(#linearGradient18);stroke-width:5;stroke-dasharray:none"
           transform="matrix(1,0,0,-1,0.89192297,639.51258)">
          <path
             id="path15"
             style="fill:#a9a9a9;fill-opacity:1;stroke:none;stroke-opacity:1;paint-order:normal"
             d="m 89.684514,225.40525 a 60.41992,92.768265 0 0 0 -60.41947,92.76758 60.41992,92.768265 0 0 0 60.41947,92.76758 60.41992,92.768265 0 0 0 60.420746,-92.76758 60.41992,92.768265 0 0 0 -60.420746,-92.76758 z m 0,51.2793 a 27.021531,41.488644 0 0 1 27.021296,41.48828 27.021531,41.488644 0 0 1 -27.021296,41.48828 27.021531,41.488644 0 0 1 -27.02129,-41.48828 27.021531,41.488644 0 0 1 27.02129,-41.48828 z" />
          <path
             id="path16"
             style="fill:#a9a9a9;fill-opacity:1;stroke:none;stroke-opacity:1;paint-order:normal"
             d="m 133.96483,387.76773 a 60.41992,92.768265 0 0 0 -60.419466,92.76758 60.41992,92.768265 0 0 0 60.419466,92.76758 60.41992,92.768265 0 0 0 60.42075,-92.76758 60.41992,92.768265 0 0 0 -60.42075,-92.76758 z m 0,51.2793 a 27.021531,41.488644 0 0 1 27.0213,41.48828 27.021531,41.488644 0 0 1 -27.0213,41.48828 27.021531,41.488644 0 0 1 -27.02129,-41.48828 27.021531,41.488644 0 0 1 27.02129,-41.48828 z" />
          <path
             id="path17"
             style="fill:#a9a9a9;stroke:none;stroke-opacity:1;paint-order:normal"
             transform="rotate(-24.929783)"
             d="M -139.18089,392.76529 H 68.233932 V 422.1092 H -139.18089 Z" />
        </g>
      </g>
    </clipPath>
    <linearGradient
       inkscape:collect="always"
       xlink:href="#linearGradient12"
       id="linearGradient18"
       gradientUnits="userSpaceOnUse"
       x1="29.265043"
       y1="399.35406"
       x2="166.95547"
       y2="377.54965" />
    <linearGradient
       id="swatch412"
       inkscape:swatch="solid"
       gradientTransform="matrix(4.7513167,0,0,7.3222647,8465.5653,-3621.2669)">
      <stop
         style="stop-color:#ffffff;stop-opacity:1;"
         offset="0"
         id="stop412" />
    </linearGradient>
    <linearGradient
       id="swatch20"
       gradientTransform="matrix(1.7035697,3.0117916,-3.4364247,1.4930626,3908.5692,6760.1897)"
       inkscape:swatch="solid">
      <stop
         style="stop-color:#3b7db2;stop-opacity:1;"
         offset="0"
         id="stop20" />
    </linearGradient>
    <linearGradient
       id="swatch14"
       inkscape:swatch="solid"
       gradientTransform="matrix(10.364826,3.7532635,-4.7081746,8.262635,50749.254,-1965.4408)">
      <stop
         style="stop-color:#c72223;stop-opacity:1;"
         offset="0"
         id="stop15" />
    </linearGradient>
    <linearGradient
       id="swatch1"
       gradientTransform="matrix(0.35271606,0.12603794,-0.16446617,0.28482069,-2080.3438,-318.3415)"
       inkscape:swatch="solid">
      <stop
         style="stop-color:#f9ed44;stop-opacity:1;"
         offset="0"
         id="stop16" />
    </linearGradient>
    <linearGradient
       inkscape:collect="always"
       xlink:href="#linearGradient83"
       id="linearGradient29"
       gradientUnits="userSpaceOnUse"
       gradientTransform="matrix(2.5642364,0,0,0.38997965,0.64491077,2.3668319)"
       x1="-524.11615"
       y1="1507.9469"
       x2="-523.97131"
       y2="1403.2389" />
    <linearGradient
       id="linearGradient83"
       gradientTransform="matrix(0.43587807,0,0,0.44743074,-377.38953,254.26726)">
      <stop
         style="stop-color:#f9ed44;stop-opacity:1;"
         offset="0.55310553"
         id="stop82" />
      <stop
         style="stop-color:#ffffff;stop-opacity:1;"
         offset="1"
         id="stop83" />
    </linearGradient>
    <filter
       inkscape:collect="always"
       style="color-interpolation-filters:sRGB"
       id="filter94"
       x="-0.0043032183"
       y="-0.032604977"
       width="1.0086064"
       height="1.06521">
      <feGaussianBlur
         inkscape:collect="always"
         stdDeviation="7.4042466"
         id="feGaussianBlur94" />
    </filter>
    <linearGradient
       inkscape:collect="always"
       xlink:href="#swatch1"
       id="linearGradient7"
       gradientUnits="userSpaceOnUse"
       gradientTransform="scale(2.6629403,0.37552476)"
       x1="-621.96106"
       y1="1390.4492"
       x2="-405.73364"
       y2="1390.4492" />
  </defs>
  <g
     id="g26"
     transform="matrix(1.6460241,0,0,1.6900229,2728.4967,-881.05489)"
     style="display:inline;stroke-width:5.99564;stroke-dasharray:none"
     inkscape:export-filename="logo.png"
     inkscape:export-xdpi="207.41"
     inkscape:export-ydpi="207.41">
    <path
       d="m -1643.5805,558.56105 q 1.4462,0.26641 2.8924,0.64699 1.4843,0.34253 3.3111,0.83728 1.8648,0.49476 4.3386,1.17981 h 11.6839 v -4.14835 h -30.1041 l -1.7887,-5.44233 h 61.0454 l 4.8334,-5.06175 q 1.7887,1.17981 3.0827,2.20738 1.3321,0.98952 2.4738,2.01709 1.1798,1.02757 2.4738,2.32155 l -2.2074,3.95806 h -30.2944 v 4.14835 h 12.1406 l 4.3006,-3.57748 q 4.4148,2.51185 6.546,4.11029 2.1693,1.59845 2.4738,2.58797 0.3425,0.98951 -0.7612,1.78873 l -2.4357,1.71262 v 18.22991 h -9.7429 v -1.48428 h -34.5188 v 1.94098 h -9.7429 z m 11.0749,-32.2734 q 6.7363,0.38059 9.8571,0.95146 3.1588,0.53282 3.0447,1.52233 -0.076,0.95146 -3.0066,2.58796 v 3.19689 h 11.9122 v -8.48699 q 5.3662,0.41865 8.4489,0.87534 3.0827,0.41865 4.1484,0.98952 0.5708,0.30446 0.6089,0.68505 0.076,0.34252 -0.2664,0.7231 -0.7231,0.87534 -3.0066,2.09321 v 3.12077 h 5.0617 l 4.4909,-4.83339 q 1.5985,1.21786 2.8544,2.24543 1.294,0.98952 2.4357,2.01709 1.1798,0.98952 2.4357,2.2835 l -2.2454,3.53941 h -15.033 v 8.86758 h -31.7406 v -8.86758 h -14.2718 l -1.8649,-5.25204 h 16.1367 z m 3.882,58.87612 q 4.5289,2.77825 6.8124,4.68116 2.3215,1.86486 2.7402,2.93049 0.1522,0.4567 0,0.79922 -0.1523,0.41864 -0.8373,0.60893 -1.2559,0.34253 -3.8058,0.0761 -3.3872,1.3701 -7.6878,2.43573 -4.3006,1.10369 -9.0959,1.86485 -4.7954,0.79923 -9.7049,1.25593 l -2.6641,-4.75729 q 4.567,-1.10369 8.9818,-2.5499 4.4528,-1.44621 8.3728,-3.27301 3.92,-1.82679 6.8886,-4.07223 z m 19.0291,1.14175 q 3.4633,0.0761 6.9266,0.30446 3.4633,0.22835 6.5841,0.60893 3.1588,0.34253 5.5945,0.87534 4.0723,0.87534 5.8991,2.20738 1.8648,1.33204 1.8648,3.12078 0,1.8268 -1.5223,4.26252 -1.4082,2.20738 -2.8163,2.32156 -1.4082,0.15223 -3.4253,-1.06563 -2.4357,-1.52233 -5.899,-3.08272 -3.4633,-1.52233 -7.5736,-2.93049 -4.0722,-1.40815 -8.4489,-2.47378 z m -2.2455,-6.69826 h 12.5212 v -4.68116 h -12.5212 z m -21.9976,0 h 12.4831 v -4.68116 h -12.4831 z m 34.5188,-13.62485 h -12.5212 v 4.26252 h 12.5212 z m -34.5188,4.26252 h 12.4831 v -4.26252 h -12.4831 z m 11.2272,-26.41242 h 11.9122 v -4.03418 h -11.9122 z m 110.0029,13.01592 v 8.41087 h 11.76 l 4.7573,-4.90951 q 1.4843,1.10369 2.5118,1.97903 1.0657,0.83728 1.941,1.6365 0.8753,0.76117 1.7507,1.63651 0.9134,0.87534 2.0551,2.0932 l -2.2454,3.72971 h -22.5305 v 19.25748 h 16.3651 l 5.29,-6.08933 q 1.903,1.63651 3.2731,2.93049 1.3701,1.29398 2.5118,2.58796 1.1798,1.25592 2.3977,2.81631 l -2.3977,4.07223 h -64.014 l -1.9409,-6.31766 h 28.1631 v -19.25748 h -21.9216 l -1.7887,-6.16544 h 23.7103 v -8.41087 h -8.6012 l -1.0656,-3.42524 q -3.8059,2.77825 -8.5251,5.44233 -4.7192,2.62602 -9.5907,4.60505 l -3.4252,-4.90952 q 5.0237,-2.51184 9.6287,-5.93709 4.6051,-3.4633 8.5631,-7.6497 3.9581,-4.18641 7.1169,-8.90564 3.1969,-4.75728 5.4043,-9.85708 5.1759,1.06563 8.1825,1.86485 3.0447,0.79923 4.3767,1.48427 1.3321,0.64699 1.3321,1.40816 0,1.06563 -3.1969,2.28349 l 0.3044,0.30447 q 4.4148,4.03417 9.7049,7.45942 5.2901,3.42524 11.0749,6.05126 5.823,2.58796 11.722,4.18641 -1.941,1.97903 -3.7678,4.6431 -1.8268,2.66408 -3.2349,5.40428 -6.5841,-3.42525 -11.8362,-7.00272 -5.2139,-3.61554 -9.5526,-7.72583 -4.3006,-4.14835 -8.1444,-9.21009 -5.5565,7.61165 -13.2824,13.89126 h 15.9084 l 3.6536,-3.69165 q 1.5984,1.14174 2.8924,2.13126 1.332,0.98951 2.5499,2.01709 1.2559,0.98951 2.588,2.24543 l -1.7888,2.89243 z m 8.3348,33.37709 -4.6812,-2.05515 q 1.9029,-3.42524 3.2349,-7.15495 1.3321,-3.76777 2.3977,-8.25864 4.2625,1.3701 6.8124,2.39767 2.588,1.02757 3.7678,1.86485 1.1798,0.79923 1.1798,1.48427 0,0.60894 -0.8753,1.06564 -0.8373,0.41864 -2.7022,0.91339 -1.8268,2.54991 -4.0722,4.90952 -2.2074,2.32155 -5.0617,4.8334 z m -38.2866,-14.19573 3.311,-3.04466 q 6.1274,2.96854 9.0198,5.59456 2.8925,2.58796 2.8925,5.09981 0,2.77825 -3.9962,5.13786 -0.9514,0.57087 -1.7887,0.87534 -0.8373,0.30447 -1.5604,0.30447 -1.2178,0 -1.7126,-0.60894 -0.4948,-0.64699 -0.8373,-2.51184 -0.5328,-2.89243 -1.941,-5.70874 -1.3701,-2.81631 -3.3871,-5.13786 z m 151.5625,-6.16544 h -15.68 v 17.24039 q 0,1.17981 0.2284,1.6365 0.2283,0.4567 0.9514,0.68505 0.5709,0.15224 2.0932,0.30447 1.5604,0.15223 3.1969,0.15223 2.8924,0 4.5289,-0.15223 1.6746,-0.19029 2.5119,-0.64699 0.8753,-0.49476 1.3701,-1.3701 0.5328,-0.83728 1.0656,-2.35961 0.5709,-1.56039 1.0276,-3.4633 0.4948,-1.94097 0.7992,-3.84388 l 4.3006,1.48427 q -0.038,1.29398 -0.076,2.01708 0,0.68505 0,1.33204 0,2.51185 0.3045,3.92 0.3044,1.40816 1.0656,1.97903 0.7611,0.53282 2.1312,0.57088 -0.038,3.4633 -0.9895,5.21398 -0.9134,1.78873 -3.0827,2.66407 -1.0276,0.4567 -2.7402,0.72311 -1.6745,0.30447 -4.3386,0.41864 -2.626,0.11418 -6.546,0.11418 -3.92,0 -6.5841,-0.11418 -2.626,-0.11417 -4.3387,-0.38058 -1.7126,-0.26641 -2.7782,-0.72311 -1.0276,-0.4567 -1.7126,-1.14174 -1.0657,-1.06564 -1.5224,-2.70214 -0.4567,-1.63651 -0.4567,-4.30058 v -19.25748 h -0.3044 q -2.3977,7.76388 -6.9266,13.5868 -4.529,5.78485 -11.4175,9.81903 -6.8505,4.07223 -16.327,6.62213 l -2.8163,-5.17592 q 10.6563,-3.92 17.2784,-10.00932 6.6222,-6.08932 9.8571,-14.84272 h -9.2101 v 4.30058 h -9.7429 v -17.84932 q -1.1037,0.83729 -2.0171,1.48428 -0.9134,0.64699 -1.8648,1.29398 l -2.3596,1.56038 -3.5775,-4.41475 q 4.8714,-3.99612 9.0959,-8.98175 4.2245,-5.02369 7.5355,-10.65631 3.3492,-5.63262 5.4424,-11.45553 7.1169,1.06563 10.3518,2.01708 3.273,0.95146 3.273,1.94097 0,0.49476 -0.9514,1.06564 -0.9515,0.53281 -3.1969,1.1798 l -1.4462,2.58796 -0.2664,0.38059 h 10.6943 l 4.3006,-4.26253 q 3.8058,3.04466 5.899,4.94757 2.1313,1.86486 2.9686,2.93049 0.8753,1.06563 0.8753,1.78874 0,0.87534 -1.4081,1.21786 l -3.9962,1.17981 q -1.8648,1.6365 -3.6916,3.0066 -1.8268,1.3701 -4.0722,2.85437 h 12.8256 l 4.3006,-4.30059 q 2.8543,2.16933 4.6431,3.61554 1.8268,1.44621 2.8163,2.39767 1.0276,0.95145 1.4082,1.56039 0.4186,0.60893 0.4186,1.14174 0,0.53282 -0.7231,1.10369 l -2.3977,1.86486 z m -9.819,-16.36505 h -12.8637 q -0.1142,2.32156 -0.4948,5.09981 -0.3805,2.77825 -0.8372,5.02369 l -0.076,0.49476 h 14.2719 z m -22.9872,0 h -12.3309 v 10.61826 h 10.9227 q 0.5329,-2.39767 0.9134,-5.17593 0.3806,-2.81631 0.4948,-5.44233 z m 18.1538,21.04622 2.6641,-2.89243 q 5.9371,2.05515 8.7153,4.26252 2.8163,2.20738 2.8163,4.79534 0,0.98952 -0.6089,2.05515 -0.6089,1.06563 -1.5985,1.97903 -0.9895,0.9134 -2.1312,1.48427 -1.1418,0.57087 -2.2074,0.57087 -0.7231,0 -1.2559,-0.34252 -0.4948,-0.34253 -0.8754,-0.9134 -0.038,-0.22835 -0.1141,-0.41864 -0.038,-0.22835 -0.3426,-1.29398 -0.7611,-2.81631 -2.0932,-5.25204 -1.332,-2.47379 -2.9685,-4.03417 z m -30.1802,-26.56466 h 12.9398 q 1.7126,-1.67457 3.3111,-3.69165 1.5984,-2.05515 3.0066,-4.33864 h -13.1682 q -1.2178,1.67456 -3.0066,3.76776 -1.7507,2.09321 -3.6155,3.99612 0.1903,0.15223 0.2664,0.19029 0.1142,0 0.2664,0.0761 z m 118.1094,1.29398 0.3044,-0.38058 0.2284,-0.30447 q 1.5604,-2.01709 3.1208,-4.30058 1.5603,-2.32156 2.8924,-4.56699 h -33.7577 l -1.7887,-6.46991 h 37.259 l 4.6812,-5.32815 q 4.1864,3.38718 6.6982,5.67068 2.5119,2.24544 3.6156,3.65359 1.1417,1.40816 1.1417,2.2835 0,1.10368 -1.8649,1.56038 l -4.2244,1.10369 q -3.235,3.04466 -7.0789,6.12738 -3.8058,3.08272 -7.4974,5.70874 v 6.4699 h 16.2128 l 5.861,-6.9266 q 2.7021,2.32155 4.605,4.18641 1.9029,1.82679 3.6536,3.84388 l 1.1037,1.25592 -2.588,4.33864 h -28.4295 v 21.04622 q 0.038,4.1864 -1.4081,6.62213 -1.4463,2.47379 -4.7954,3.50136 -3.3491,1.06563 -9.0198,1.02757 0.038,-1.67456 -0.4567,-2.89242 -0.4947,-1.17981 -1.7887,-2.09321 -1.2559,-0.87534 -3.5775,-1.6365 -2.3216,-0.72311 -5.9371,-1.48427 v -5.21398 q 4.0342,0.34252 7.193,0.53281 3.1589,0.19029 5.6707,0.19029 1.8649,0 2.5118,-0.57087 0.6851,-0.60893 0.6851,-2.24544 v -16.78369 h -29.6854 l -1.903,-6.69825 h 31.2078 v -11.91223 q 1.8649,0.15223 3.0447,0.26641 1.1798,0.11417 1.979,0.22835 0.8373,0.0761 1.5984,0.19029 z m 87.4724,26.75495 h -11.2272 v 11.15107 q 2.3596,-0.30447 4.8715,-0.64699 2.5499,-0.38059 4.6431,-0.76117 -0.647,-1.06563 -1.4843,-2.28349 -0.8373,-1.21787 -1.7126,-2.32156 l 3.6536,-2.89242 q 4.6811,3.15883 7.5736,5.63262 2.9305,2.47378 4.2625,4.52893 1.332,2.01709 1.332,3.80582 0,2.47379 -2.9304,4.3767 -1.2179,0.68505 -2.3216,1.06563 -1.0656,0.41864 -1.8268,0.41864 -2.0551,0 -2.6641,-2.74019 -0.2664,-1.21786 -0.5328,-2.13126 -0.2664,-0.9134 -0.685,-2.09321 -5.214,1.86486 -10.6183,3.4633 -5.4043,1.59845 -10.6563,2.77826 -0.7231,1.6365 -1.2559,2.28349 -0.4948,0.68505 -1.0276,0.68505 -0.9895,0 -2.1693,-2.74019 -1.1798,-2.7402 -2.8163,-8.94369 1.1417,-0.0761 1.9029,-0.11418 0.7612,-0.0381 1.4462,-0.0761 0.685,-0.0761 1.5604,-0.15224 0.9134,-0.11417 2.3596,-0.22835 v -39.88504 q 2.1693,0.4567 3.5014,0.7231 1.3701,0.26641 2.2835,0.49476 0.9134,0.19029 1.7126,0.38058 0.8373,0.15224 1.979,0.41864 h 10.5421 l 3.8059,-3.65359 q 3.0446,2.20738 4.7572,3.57748 1.7127,1.37009 2.3977,2.20738 0.7231,0.79922 0.7231,1.44621 0,0.53282 -0.5328,0.95146 l -1.8648,1.56038 v 21.65515 h -8.9818 z m 23.9386,-25.8035 h 9.0199 l 4.0722,-4.14835 q 2.5879,1.97903 4.2245,3.31107 1.6745,1.29398 2.5879,2.16932 0.9134,0.87534 1.294,1.44622 0.3806,0.57087 0.3806,1.02757 0,0.30447 -0.1903,0.57087 -0.1522,0.26641 -0.4948,0.60894 l -2.2074,1.86485 v 25.04233 q 0.038,3.4633 -1.0656,5.48039 -1.0656,1.97903 -3.6916,2.85437 -2.6261,0.87534 -7.2311,0.91339 0.076,-1.86485 -0.4186,-3.0066 -0.4948,-1.1798 -1.7507,-1.82679 -1.2179,-0.64699 -3.4633,-0.98952 v -4.52893 q 2.1693,0.22835 3.7297,0.34252 1.5984,0.11418 2.2835,0.11418 1.2178,0 1.7507,-0.57088 0.5328,-0.57087 0.5328,-1.90291 v -22.83495 h -9.5907 v 43.88116 h -9.3623 v -52.21592 q 2.2073,0.49476 3.7677,0.87534 1.5985,0.38059 2.9305,0.76117 1.3701,0.34252 2.8924,0.76116 z m -14.5001,-11.37941 h -15.3756 q 7.6497,1.97903 7.6497,4.83339 0,0.76117 -0.7231,1.67457 -0.685,0.9134 -1.7887,1.75068 -1.0656,0.79922 -2.2455,1.33204 -1.1798,0.53281 -2.1693,0.53281 -0.9514,0 -1.332,-0.49476 -0.3806,-0.49475 -0.6851,-2.05514 -0.3044,-1.90291 -1.2178,-3.80583 -0.9134,-1.94097 -2.3977,-3.76776 h -1.3701 q -2.3215,3.50136 -5.3662,6.58407 -3.0066,3.04466 -6.5841,5.59457 l -3.8819,-3.69165 q 4.2625,-4.49088 7.1169,-10.08544 2.8543,-5.63262 4.0341,-11.64582 4.6812,0.76116 7.3833,1.37009 2.7022,0.57088 3.8439,1.06563 1.1418,0.49476 1.1418,1.06563 0,0.4567 -0.7992,0.95146 -0.7993,0.4567 -2.7022,1.14175 -0.3806,0.95145 -0.5709,1.33204 -0.1522,0.38058 -0.5328,1.10369 h 9.8191 l 4.5289,-5.40428 q 1.1798,1.06564 2.0932,1.97903 0.9134,0.87534 1.8648,1.90292 0.9515,1.02757 2.2835,2.58796 1.7507,-4.11029 2.8164,-9.17204 4.6811,0.76116 7.2691,1.33204 2.5879,0.53281 3.6155,0.98951 1.0276,0.41864 1.0276,0.95146 0,0.4567 -0.7231,0.95146 -0.7231,0.45669 -2.626,1.14174 l -0.6851,1.63651 q -0.2283,0.57087 -0.4947,1.10369 h 12.9398 l 4.8334,-5.86097 q 1.2939,1.1798 2.2073,2.0932 0.9515,0.87534 1.7507,1.67456 0.7992,0.79923 1.5985,1.75068 0.8372,0.9134 1.8648,2.13126 l -1.7887,3.42525 h -19.9425 q 3.6916,0.95145 5.6706,2.20738 2.0171,1.21786 2.0171,2.62601 0,0.76117 -0.685,1.63651 -0.6851,0.87534 -1.7507,1.67456 -1.0656,0.79923 -2.2835,1.33204 -1.1798,0.49476 -2.2074,0.49476 -0.9895,0 -1.4462,-0.49476 -0.4186,-0.53281 -0.647,-2.05514 -0.3806,-1.71263 -1.294,-3.57748 -0.9134,-1.90291 -2.4738,-3.84388 h -1.37 q -2.0552,2.89242 -4.6051,5.51844 -2.5118,2.58796 -5.4043,4.68117 l -3.7297,-3.72971 q 1.4082,-1.67456 2.4357,-3.15884 1.0276,-1.48427 2.0933,-3.31106 z m -9.4385,32.04504 v -5.63262 h -11.2272 v 5.63262 z m 0,-10.54213 v -5.13786 h -11.2272 v 5.13786 z m 135.0834,-10.27573 h -15.5659 q 1.8649,2.7402 3.882,4.75728 h 9.3623 l 4.7573,-4.8334 q 1.7507,1.21787 3.0827,2.2835 1.332,1.06563 2.4738,2.13126 1.1798,1.06563 2.4738,2.35961 l -2.2835,3.72971 h -13.1682 q 3.273,2.32156 7.5736,4.3767 4.3387,2.05515 9.134,3.50136 -1.979,2.32155 -3.5014,4.56699 -1.5223,2.24544 -2.8163,4.87146 -2.7021,-1.33204 -4.9856,-2.70214 -2.2835,-1.3701 -4.4528,-2.96854 -2.1313,-1.63651 -4.529,-3.69165 l -1.4081,2.51184 h -11.8361 v 2.5499 q 0,0.53282 -0.038,1.21787 -0.038,0.64699 -0.1142,1.59844 h 9.9713 l 4.3767,-4.37669 q 1.1798,0.83728 2.0171,1.44621 0.8373,0.60893 1.5984,1.21786 0.7993,0.60894 1.7127,1.40816 0.9514,0.79922 2.2835,2.01709 l -2.0932,3.84388 h -21.0463 q -0.2283,0.68505 -0.3805,1.06563 -0.1523,0.38058 -0.3806,0.87534 l 1.7887,0.30447 q 6.9647,1.06563 11.76,2.0932 4.8334,1.02757 7.802,2.13126 2.9685,1.06563 4.3005,2.2835 1.3701,1.1798 1.3701,2.62602 0,0.91339 -0.5708,2.05514 -0.5709,1.17981 -1.4463,2.24544 -0.8753,1.06563 -1.8268,1.75068 -0.9134,0.7231 -1.6745,0.7231 -0.647,0 -1.294,-0.34252 -0.647,-0.30447 -1.5984,-0.9134 -2.3597,-1.82679 -5.7088,-3.69165 -3.311,-1.82679 -7.3452,-3.53942 -3.9961,-1.71262 -8.449,-3.12077 -8.1444,9.74291 -28.0489,11.60776 l -3.1969,-4.83339 q 9.2101,-1.44622 15.3375,-4.79534 6.1274,-3.38719 8.7915,-8.52505 h -17.2785 l -1.8648,-5.55651 h 20.8559 q 0.2664,-1.44621 0.2664,-2.81631 v -2.5499 h -10.9989 l -0.6469,-1.6365 q -2.588,2.24543 -5.214,4.14835 -2.626,1.86485 -5.5946,3.53941 -2.9305,1.67457 -6.546,3.31107 l -3.1969,-4.52893 q 5.3282,-2.93049 9.6668,-6.73631 4.3767,-3.84388 7.9542,-8.56311 h -15.1472 l -1.6365,-5.67068 h 20.5895 q 0.7612,-1.29398 1.294,-2.35961 0.5709,-1.06563 1.294,-2.39767 h -13.7391 l -1.4842,-5.36621 h 17.4687 q 0.2283,-0.60893 0.5328,-1.40816 0.3045,-0.79922 0.5709,-1.59844 0.3045,-0.79923 0.4567,-1.29398 h -21.9216 l -1.7887,-5.70874 h 25.2707 q 0.3425,-1.3701 0.5708,-2.47379 0.2665,-1.10369 0.5329,-2.51184 0.2664,-1.40816 0.6089,-3.57748 7.193,0.53282 10.2757,1.21787 3.1208,0.68504 3.1208,1.75067 0,0.49476 -0.8373,1.14175 -0.7992,0.64699 -2.7402,1.52233 l -0.4567,1.86486 -0.2283,1.06563 h 17.659 l 4.8334,-5.13787 q 1.9029,1.44622 3.1588,2.51185 1.294,1.06563 2.3977,2.13126 1.1037,1.06563 2.3977,2.47379 l -2.1693,3.72971 h -29.9138 q -0.1903,0.60893 -0.4948,1.44621 -0.2664,0.83728 -0.5328,1.59845 -0.2664,0.76116 -0.4567,1.25592 h 17.0501 l 4.3767,-3.84389 q 1.6365,1.06564 2.7782,1.90292 1.1798,0.79922 2.2455,1.71262 1.1037,0.9134 2.5499,2.24544 z m -22.1119,0 h -7.193 q -0.6089,1.33204 -1.1798,2.39767 -0.5328,1.06563 -1.294,2.35961 h 12.0645 l -0.2284,-0.30446 q -0.1141,-0.38059 -0.3044,-0.64699 -0.2284,-0.38059 -0.5709,-1.06563 -0.3425,-0.72311 -0.7231,-1.48428 -0.3425,-0.76116 -0.5709,-1.25592 z m 6.1274,10.42796 h -19.562 q -1.2178,1.71262 -2.2073,2.89243 -0.9895,1.14175 -2.2074,2.43573 h 22.2641 l 3.273,-3.27301 q -0.2284,-0.30447 -0.7231,-0.9134 -0.4567,-0.60893 -0.8373,-1.14175 z"
       id="text21"
       style="font-weight:bold;font-size:77.9433px;line-height:1;font-family:'BIZ UDPMincho';-inkscape-font-specification:'BIZ UDPMincho, Bold';text-align:center;letter-spacing:20.9847px;word-spacing:0px;text-orientation:upright;text-anchor:middle;fill:url(#swatch14);stroke:url(#linearGradient7);stroke-miterlimit:5;paint-order:stroke fill markers"
       aria-label="黃金兔子節奏" />
    <path
       d="m -1621.2491,591.22697 c 4.8205,0 8.7057,-1.79869 11.5117,-5.25218 l 2.0864,4.46076 h 4.5328 v -14.96512 c 0,-1.00727 0.6475,-1.58285 1.5109,-1.58285 h 0.2877 v -9.13736 h -18.8503 v 9.13736 h 1.439 c 0.8634,0 1.5109,0.57558 1.5109,1.58285 v 2.66206 c 0,2.73401 -1.0073,4.10102 -3.0218,4.10102 -1.9426,0 -2.9499,-1.36701 -2.9499,-4.10102 v -30.43388 c 0,-2.87791 1.3671,-4.60465 3.5974,-4.60465 4.173,0 6.8351,5.53997 7.4106,15.5407 h 7.6265 v -23.95858 h -7.9142 c 0,0.86337 -0.4317,1.43895 -1.2232,1.43895 -1.0792,0 -4.3168,-2.15843 -8.7056,-2.15843 -11.008,0 -17.1236,10.36047 -17.1236,28.92298 0,18.63445 6.2595,28.34739 18.2747,28.34739 z m 37.3408,-0.14389 c 10.1447,0 15.6127,-7.26672 15.6127,-20.79289 0,-13.52617 -5.468,-20.79288 -15.6127,-20.79288 -10.1446,0 -15.6126,7.26671 -15.6126,20.79288 0,13.52617 5.468,20.79289 15.6126,20.79289 z m 0,-8.56178 c -1.367,0 -2.0864,-1.00727 -2.0864,-2.80596 v -18.8503 c 0,-1.79869 0.7194,-2.80596 2.0864,-2.80596 1.367,0 2.0865,1.00727 2.0865,2.80596 v 18.8503 c 0,1.79869 -0.7195,2.80596 -2.0865,2.80596 z m 17.1955,-0.1439 v 8.05815 h 17.4833 v -8.05815 h -1.1512 c -0.9353,0 -1.5109,-0.50363 -1.5109,-1.43895 v -46.26237 h -14.8212 v 8.05814 h 1.2951 c 0.9353,0 1.4389,0.57558 1.4389,1.36701 v 36.83722 c 0,0.93532 -0.5036,1.43895 -1.4389,1.43895 z m 30.218,8.70568 c 3.4535,0 6.6192,-2.37428 7.5545,-6.11556 v 5.46803 h 13.7421 v -8.05815 h -1.0793 c -0.9353,0 -1.5109,-0.57558 -1.5109,-1.5109 v -46.19042 h -15.7565 v 8.05814 h 2.2304 c 0.8633,0 1.4389,0.57558 1.4389,1.43896 v 6.40334 c -1.367,-0.79142 -3.1657,-1.07921 -5.2522,-1.07921 -7.4825,0 -12.303,6.0436 -12.303,21.51236 0,15.46875 4.5327,20.07341 10.936,20.07341 z m 4.5327,-8.92152 c -1.367,0 -2.0864,-0.93532 -2.0864,-2.73401 V 560.5053 c 0,-1.87064 0.7194,-2.73401 2.0864,-2.73401 1.3671,0 2.0865,0.86337 2.0865,2.73401 v 18.92225 c 0,1.79869 -0.7194,2.73401 -2.0865,2.73401 z m 34.6789,8.92152 c 9.1374,0 13.3823,-6.69114 13.3823,-14.67733 v -2.01454 h -10.7922 v 5.68387 c 0,2.01453 -0.9353,3.1657 -2.5901,3.1657 -1.6548,0 -2.5901,-1.15117 -2.5901,-3.1657 v -8.56178 h 15.9004 v -5.32413 c 0,-10.72021 -4.8924,-16.69186 -13.8139,-16.69186 -9.8569,0 -15.6127,7.6984 -15.6127,20.57704 0,13.8859 5.9717,21.00873 16.1163,21.00873 z m -2.6621,-26.6926 v -4.31686 c 0,-1.94259 0.5756,-2.73402 1.7987,-2.73402 1.2951,0 1.9426,0.79143 1.9426,2.73402 v 4.31686 z m 32.9521,16.90771 v -21.29652 c 0,-1.22311 0.7915,-2.01454 2.0146,-2.01454 1.2231,0 2.0145,1.00727 2.0145,2.01454 v 21.29652 c 0,1.07921 -0.7914,1.79869 -2.0145,1.79869 -1.2951,0 -2.0146,-0.71948 -2.0146,-1.79869 z m -14.8931,1.07921 v 8.05815 h 33.5276 v -8.05815 h -1.0792 c -0.8634,0 -1.439,-0.50363 -1.439,-1.43895 v -22.37573 c 0,-6.11556 -4.6046,-9.06541 -9.0654,-9.06541 -3.5254,0 -6.907,2.15843 -7.9862,6.11555 v -5.46803 h -13.9578 v 8.05815 h 1.4389 c 0.7914,0 1.367,0.57558 1.367,1.5109 v 21.22457 c 0,0.93532 -0.5756,1.43895 -1.367,1.43895 z m 72.5952,8.84957 c 12.8067,0 17.4114,-8.99346 17.4114,-21.22457 v -3.23765 h -9.9288 v 5.39608 c 0,4.96439 -1.5829,10.14463 -5.8997,10.14463 -2.3743,0 -3.7413,-2.15843 -3.7413,-4.8205 v -29.78635 c 0,-2.59011 1.0792,-4.60465 3.3815,-4.60465 4.3888,0 7.0509,5.68387 7.6265,15.18096 h 7.6264 v -23.59884 h -7.9142 c 0,0.71948 -0.3597,1.29506 -1.2231,1.29506 -1.0792,0 -4.3169,-2.01454 -8.7057,-2.01454 -11.0799,0 -17.1235,10.50437 -17.1235,28.92298 0,18.49056 6.5472,28.34739 18.4905,28.34739 z m 35.6861,-0.14389 c 10.1446,0 15.6127,-7.26672 15.6127,-20.79289 0,-13.52617 -5.4681,-20.79288 -15.6127,-20.79288 -10.1446,0 -15.6126,7.26671 -15.6126,20.79288 0,13.52617 5.468,20.79289 15.6126,20.79289 z m 0,-8.56178 c -1.367,0 -2.0865,-1.00727 -2.0865,-2.80596 v -18.8503 c 0,-1.79869 0.7195,-2.80596 2.0865,-2.80596 1.367,0 2.0865,1.00727 2.0865,2.80596 v 18.8503 c 0,1.79869 -0.7195,2.80596 -2.0865,2.80596 z m 32.4484,-1.22311 v -21.29652 c 0,-1.22311 0.7914,-2.01454 2.0145,-2.01454 1.2232,0 2.0146,1.00727 2.0146,2.01454 v 21.29652 c 0,1.07921 -0.7914,1.79869 -2.0146,1.79869 -1.295,0 -2.0145,-0.71948 -2.0145,-1.79869 z m -14.8932,1.07921 v 8.05815 h 33.5277 v -8.05815 h -1.0793 c -0.8633,0 -1.4389,-0.50363 -1.4389,-1.43895 v -22.37573 c 0,-6.11556 -4.6047,-9.06541 -9.0654,-9.06541 -3.5255,0 -6.907,2.15843 -7.9862,6.11555 v -5.46803 h -13.9579 v 8.05815 h 1.439 c 0.7914,0 1.367,0.57558 1.367,1.5109 v 21.22457 c 0,0.93532 -0.5756,1.43895 -1.367,1.43895 z m 51.4426,8.70568 c 9.1374,0 13.3823,-6.69114 13.3823,-14.67733 v -2.01454 h -10.7921 v 5.68387 c 0,2.01453 -0.9354,3.1657 -2.5902,3.1657 -1.6548,0 -2.5901,-1.15117 -2.5901,-3.1657 v -8.56178 h 15.9005 v -5.32413 c 0,-10.72021 -4.8925,-16.69186 -13.814,-16.69186 -9.8568,0 -15.6126,7.6984 -15.6126,20.57704 0,13.8859 5.9716,21.00873 16.1162,21.00873 z m -2.662,-26.6926 v -4.31686 c 0,-1.94259 0.5756,-2.73402 1.7987,-2.73402 1.295,0 1.9426,0.79143 1.9426,2.73402 v 4.31686 z m 19.2101,-23.383 c 0,4.10102 2.662,6.76308 6.835,6.76308 4.101,0 6.7631,-2.66206 6.7631,-6.76308 0,-4.10102 -2.6621,-6.83503 -6.7631,-6.83503 -4.173,0 -6.835,2.73401 -6.835,6.83503 z m -9.9288,54.89609 c 0,5.39608 4.5327,8.77762 10.5044,8.77762 7.8423,0 12.375,-5.89971 12.375,-13.38227 v -41.15409 h -14.5335 v 8.05815 h 0.9353 c 0.9354,0 1.5109,0.50363 1.5109,1.5109 v 30.72167 c 1.3671,0.93532 2.0865,2.51817 2.0865,4.31686 0,1.87064 -1.0072,3.38154 -2.5901,3.38154 -0.7195,0 -1.1512,-0.28779 -1.295,-0.50363 0.6475,-0.57558 1.295,-2.08649 1.295,-3.45349 0,-2.66207 -1.7987,-4.6766 -4.5327,-4.6766 -3.2376,0 -5.7558,2.59011 -5.7558,6.40334 z m 42.0893,-4.82049 c 10.1446,0 15.6127,-7.26672 15.6127,-20.79289 0,-13.52617 -5.4681,-20.79288 -15.6127,-20.79288 -10.1446,0 -15.6126,7.26671 -15.6126,20.79288 0,13.52617 5.468,20.79289 15.6126,20.79289 z m 0,-8.56178 c -1.367,0 -2.0865,-1.00727 -2.0865,-2.80596 v -18.8503 c 0,-1.79869 0.7195,-2.80596 2.0865,-2.80596 1.367,0 2.0865,1.00727 2.0865,2.80596 v 18.8503 c 0,1.79869 -0.7195,2.80596 -2.0865,2.80596 z m 17.6272,7.91425 h 20.1454 c 11.5835,0 17.6991,-6.25945 17.6991,-15.97239 0,-6.11556 -3.3096,-11.008 -8.9215,-13.52617 4.6766,-2.37427 7.4825,-6.54724 7.4825,-11.72748 0,-8.84956 -5.8997,-14.53343 -16.9796,-14.53343 h -19.4259 v 8.84957 h 1.5828 c 0.8634,0 1.511,0.57558 1.511,1.58285 v 34.89463 c 0,1.00727 -0.6476,1.58285 -1.511,1.58285 h -1.5828 z m 17.2674,-33.31179 v -11.72747 c 0,-1.36701 0.6476,-2.37428 2.1585,-2.37428 1.4389,0 2.4462,0.93532 2.4462,2.87791 v 8.41788 c 0,2.01454 -1.0792,2.80596 -3.0218,2.80596 z m 0,21.80015 v -13.02253 h 2.5182 c 1.6548,0 2.806,1.07922 2.806,3.23765 v 10.00073 c 0,1.5109 -0.7914,2.66206 -2.5182,2.66206 -1.6548,0 -2.806,-0.93532 -2.806,-2.87791 z m 38.9238,12.15917 c 9.1374,0 13.3823,-6.69114 13.3823,-14.67733 v -2.01454 h -10.7921 v 5.68387 c 0,2.01453 -0.9354,3.1657 -2.5902,3.1657 -1.6548,0 -2.5901,-1.15117 -2.5901,-3.1657 v -8.56178 h 15.9005 v -5.32413 c 0,-10.72021 -4.8925,-16.69186 -13.814,-16.69186 -9.8568,0 -15.6126,7.6984 -15.6126,20.57704 0,13.8859 5.9716,21.00873 16.1162,21.00873 z m -2.662,-26.6926 v -4.31686 c 0,-1.94259 0.5756,-2.73402 1.7987,-2.73402 1.295,0 1.9426,0.79143 1.9426,2.73402 v 4.31686 z m 27.0524,26.5487 c 3.3096,0 6.4753,-1.6548 8.202,-5.18023 1.0073,3.88517 3.8852,5.03634 6.835,5.03634 5.4681,0 8.7777,-4.31687 8.7777,-10.00073 v -2.94986 l -4.6766,-1.79869 v 5.68387 c 0,1.00726 -0.2159,1.5109 -0.7915,1.5109 -0.5755,0 -0.8633,-0.50364 -0.8633,-1.5109 v -20.21731 c 0,-7.33866 -4.8205,-12.01526 -12.447,-12.01526 -7.4825,0 -12.8067,4.82049 -12.8067,10.57631 0,4.02907 2.4463,6.69113 5.8997,6.69113 2.806,0 5.0364,-1.79869 5.0364,-4.60465 0,-1.5109 -0.5037,-2.94986 -1.1512,-3.81323 0.3598,-0.71947 1.2231,-1.15116 2.0146,-1.15116 1.1511,0 2.0864,1.00727 2.0864,3.88518 0,3.16569 -1.295,5.03633 -5.8997,6.69113 -5.5399,2.15843 -8.9934,5.18024 -8.9934,12.37501 0,6.76308 3.4535,10.79215 8.7776,10.79215 z m 4.4607,-7.91425 c -1.1511,0 -1.5828,-1.367 -1.5828,-4.17296 0,-3.23765 1.0792,-5.82777 3.3096,-7.55451 v 9.78489 c 0,1.22311 -0.6475,1.94258 -1.7268,1.94258 z m 21.0087,-2.59011 c 0,7.26671 5.1083,10.64826 10.2885,10.64826 6.6192,0 9.569,-4.31687 9.569,-10.00073 v -6.90698 l -5.396,-2.44623 v 8.84957 c 0,1.43896 -0.2878,2.23038 -1.1512,2.23038 -0.8634,0 -1.2231,-0.79142 -1.2231,-2.23038 v -20.93678 c 0,-0.86337 0.5756,-1.43895 1.4389,-1.43895 h 5.9717 v -8.05815 h -7.4106 v -15.46875 h -5.54 c 0,5.75582 -3.2376,8.56178 -6.5472,8.84957 v 6.61918 h -2.4463 v 8.05815 h 1.0073 c 0.8634,0 1.439,0.57558 1.439,1.43895 z m 22.4476,-28.63519 5.6119,22.30379 h 3.7413 l 5.6839,-22.37574 v -17.0516 h -15.0371 z m 7.5545,39.0676 c 4.2449,0 6.907,-2.73401 6.907,-6.90698 0,-4.10102 -2.6621,-6.90698 -6.907,-6.90698 -4.2449,0 -6.9789,2.80596 -6.9789,6.90698 0,4.17297 2.734,6.90698 6.9789,6.90698 z"
       id="text22"
       style="font-weight:bold;font-size:71.9477px;line-height:1;font-family:'Job Clarendon';-inkscape-font-specification:'Job Clarendon, Bold';font-feature-settings:'ss02', 'ss06';text-align:center;letter-spacing:0px;word-spacing:8.99346px;text-orientation:upright;text-anchor:middle;fill:url(#linearGradient29);stroke:url(#swatch20);stroke-width:7.19477;stroke-miterlimit:5;paint-order:stroke fill markers"
       aria-label="Golden ConejoBeat!" />
    <text
       xml:space="preserve"
       style="font-style:normal;font-variant:normal;font-weight:bold;font-stretch:normal;font-size:77.9433px;line-height:1;font-family:'BIZ UDPMincho';-inkscape-font-specification:'BIZ UDPMincho, Bold';font-variant-ligatures:normal;font-variant-caps:normal;font-variant-numeric:normal;font-variant-east-asian:normal;text-align:center;letter-spacing:20.9847px;word-spacing:0px;text-orientation:upright;text-anchor:middle;display:none;opacity:1;mix-blend-mode:darken;fill:url(#swatch14);fill-opacity:1;stroke:none;stroke-width:5.99564;stroke-miterlimit:5;stroke-dasharray:none;stroke-opacity:1;paint-order:stroke fill markers;filter:url(#filter94)"
       x="-1368.9728"
       y="592.39484"
       id="text24"><tspan
         sodipodi:role="line"
         id="tspan24"
         x="0"
         y="0"
         style="font-style:normal;font-variant:normal;font-weight:bold;font-stretch:normal;font-size:77.9433px;font-family:'BIZ UDPMincho';-inkscape-font-specification:'BIZ UDPMincho, Bold';font-variant-ligatures:normal;font-variant-caps:normal;font-variant-numeric:normal;font-variant-east-asian:normal;letter-spacing:20.9847px;fill:url(#swatch14);stroke:none;stroke-width:5.99564;stroke-dasharray:none">黃金兔子節奏</tspan></text>
    <text
       xml:space="preserve"
       style="font-style:normal;font-variant:normal;font-weight:normal;font-stretch:normal;font-size:10.7922px;line-height:1;font-family:Helvetica;-inkscape-font-specification:Helvetica;font-variant-ligatures:normal;font-variant-position:normal;font-variant-caps:normal;font-variant-numeric:normal;font-variant-alternates:normal;font-variant-east-asian:normal;text-indent:0;text-align:end;text-decoration-line:none;text-decoration-style:solid;text-decoration-color:#000000;letter-spacing:0px;word-spacing:0px;text-transform:none;writing-mode:lr-tb;direction:ltr;text-orientation:upright;dominant-baseline:auto;baseline-shift:baseline;text-anchor:end;white-space:normal;display:none;opacity:1;fill:url(#swatch14);fill-opacity:1;stroke:url(#swatch412);stroke-width:2.39826;stroke-linecap:butt;stroke-linejoin:miter;stroke-miterlimit:3;stroke-dasharray:none;stroke-dashoffset:0;stroke-opacity:1;paint-order:stroke fill markers"
       x="-1075.8149"
       y="614.88727"
       id="text25"
       transform="scale(1.013277,0.98689694)"><tspan
         sodipodi:role="line"
         id="tspan25"
         x="0"
         y="0"
         style="font-style:normal;font-variant:normal;font-weight:normal;font-stretch:normal;font-size:10.7922px;font-family:Helvetica;-inkscape-font-specification:Helvetica;text-align:end;letter-spacing:0px;text-anchor:end;fill:url(#swatch14);stroke:url(#swatch412);stroke-width:2.39826;stroke-miterlimit:3;stroke-dasharray:none;stroke-opacity:1">dress code: gold/blue/dragon/rainbow</tspan></text>
    <text
       xml:space="preserve"
       style="font-style:normal;font-variant:normal;font-weight:normal;font-stretch:normal;font-size:10.7922px;line-height:1;font-family:Helvetica;-inkscape-font-specification:Helvetica;font-variant-ligatures:normal;font-variant-position:normal;font-variant-caps:normal;font-variant-numeric:normal;font-variant-alternates:normal;font-variant-east-asian:normal;text-indent:0;text-align:start;text-decoration-line:none;text-decoration-style:solid;text-decoration-color:#000000;letter-spacing:0px;word-spacing:0px;text-transform:none;writing-mode:lr-tb;direction:ltr;text-orientation:upright;dominant-baseline:auto;baseline-shift:baseline;text-anchor:start;white-space:normal;display:none;opacity:1;fill:url(#swatch14);fill-opacity:1;stroke:url(#swatch412);stroke-width:2.39826;stroke-linecap:butt;stroke-linejoin:miter;stroke-miterlimit:3;stroke-dasharray:none;stroke-dashoffset:0;stroke-opacity:1;paint-order:stroke fill markers"
       x="-1625.0156"
       y="614.90485"
       id="text26"
       transform="scale(1.013277,0.98689694)"><tspan
         sodipodi:role="line"
         id="tspan26"
         x="0"
         y="0"
         style="font-style:normal;font-variant:normal;font-weight:normal;font-stretch:normal;font-size:10.7922px;font-family:Helvetica;-inkscape-font-specification:Helvetica;text-align:start;letter-spacing:0px;text-anchor:start;fill:url(#swatch14);stroke:url(#swatch412);stroke-width:2.39826;stroke-miterlimit:3;stroke-dasharray:none;stroke-opacity:1">slurl &amp; audio stream: conejobeat.com (day of)</tspan></text>
  </g>
</svg>
