<?xml version="1.0" encoding="utf-8"?>
<!-- Generator: Adobe Illustrator 16.0.0, SVG Export Plug-In . SVG Version: 6.00 Build 0)  -->
<!DOCTYPE svg PUBLIC "-//W3C//DTD SVG 1.1//EN" "http://www.w3.org/Graphics/SVG/1.1/DTD/svg11.dtd">
<svg version="1.1" xmlns="http://www.w3.org/2000/svg" xmlns:xlink="http://www.w3.org/1999/xlink" x="0px" y="0px" width="128px"
	 height="128px" viewBox="0 0 128 128" enable-background="new 0 0 128 128" xml:space="preserve">
<g id="Layer_1">
</g>
<g id="Layer_2">
	<g>
		<g>
			<path fill-rule="evenodd" clip-rule="evenodd" fill="#FF88AA" d="M34.669,42.088c-0.192-0.624-0.339-1.267-0.583-1.87
				c-2.175-5.368-1.24-10.352,2.002-14.953c2.183-3.095,5.347-5.077,8.878-6.114c2.447-0.717,5.149-0.836,7.725-0.759
				c1.728,0.052,3.49,0.777,5.137,1.447c3.015,1.226,6.194,1.531,9.354,1.99c2.005,0.29,4.02,0.524,6.018,0.857
				c3.928,0.656,7.895,1.174,11.761,2.098c5.401,1.29,10.249,3.755,13.836,8.156c1.839,2.255,3.817,4.504,4.43,7.479
				c0.268,1.301,0.214,2.669,0.317,4.006c0.214,2.744,0.438,5.487,0.649,8.231c0.027,0.342,0.005,0.688-0.099,1.046
				c-0.508-2.886-1.014-5.771-1.542-8.774c-0.43,0.158-0.786,0.185-0.979,0.376c-1.391,1.391-3.043,1.215-4.738,0.855
				c-2.398-0.509-4.518-1.656-6.605-2.879c-0.189-0.111-0.395-0.195-0.73-0.135c0.512,0.614,1.017,1.234,1.535,1.84
				c0.897,1.046,1.792,2.094,2.707,3.124c2.942,3.309,4.491,7.244,5.022,11.57c0.203,1.655-0.231,3.299-1.241,4.698
				c-0.965,1.336-3.234,1.769-5.124,1.018c-2.275-0.903-4.268-2.256-5.996-3.963c-2.903-2.868-5.899-5.621-9.241-7.977
				c-0.244-0.172-0.496-0.329-0.847-0.56c-0.028,0.333-0.081,0.53-0.057,0.717c0.119,0.896-0.176,1.641-0.496,2.487
				c-0.356,0.94-0.229,2.167-0.009,3.204c1.183,5.545,2.467,11.069,3.697,16.604c0.305,1.369,0.543,2.753,1.304,3.726
				c1.495-0.935,2.814-2.028,4.33-2.641c1.916-0.774,3.962-0.754,5.915,0.213c0.373,0.185,0.873,0.121,1.314,0.171
				c2.292,0.259,3.775,1.66,4.665,3.624c1.682,3.71,1.797,7.552,0.329,11.351c-1.071,2.773-3.548,3.824-6.215,4.423
				c-1.898,0.424-3.832,0.609-5.655-0.73c-0.537,1.816-1.125,3.45-1.498,5.132c-0.967,4.353-2.263,8.577-4.342,12.54
				c-1.034,1.974-2.988,2.366-4.435,0.659c-1.189-1.404-2.166-3.021-3.06-4.642c-1.515-2.748-2.837-5.602-4.342-8.354
				c-1.13-2.064-2.412-4.035-4.843-4.848c-1.265-0.422-2.485-0.645-3.806-0.159c-1.128,0.413-2.317,0.65-3.476,0.979
				c-0.654,0.186-1.089,0.075-1.132-0.711c-0.014-0.237-0.1-0.471-0.154-0.705c-0.187-0.804,0.016-1.25,0.933-1.438
				c1.578-0.32,3.107-1.042,4.688-1.16c3.985-0.299,7.005,1.573,9.079,4.865c1.485,2.356,2.737,4.863,4.078,7.312
				c1.025,1.874,2.015,3.767,3.046,5.639c0.207,0.375,0.524,0.688,0.939,1.219c3.159-6.575,5.97-13.042,7.255-20.338
				c0.74,0.48,1.285,0.755,1.731,1.14c2.215,1.903,4.459,1.036,6.664,0.057c2.053-0.912,2.559-2.759,2.568-4.793
				c0.009-1.374,0.104-2.792-0.195-4.111c-0.262-1.15-0.948-2.231-1.591-3.254c-0.256-0.406-0.895-0.796-1.362-0.799
				c-1.81-0.012-3.627,0.082-5.433,0.24c-1.668,0.146-2.821,1.164-3.725,2.505c-0.213,0.314-0.407,0.652-0.679,0.91
				c-0.81,0.772-2.02,0.472-2.312-0.569c-1.123-4.003-2.291-7.993-3.337-12.016c-1.772-6.831-3.079-13.785-5.584-20.418
				c-0.411-1.085-0.856-1.992-1.982-2.472c-0.497-0.213-1.066-0.511-1.336-0.938c-0.304-0.481-0.561-1.251-0.379-1.717
				c0.303-0.78,1.122-1.044,1.91-0.569c4.482,2.701,9.078,5.239,13.031,8.726c2.299,2.028,4.483,4.188,6.829,6.159
				c1.199,1.008,2.584,1.837,3.984,2.551c1.428,0.729,2.437,0.242,2.575-1.34c0.125-1.433-0.031-2.951-0.384-4.35
				c-0.827-3.277-2.768-5.936-4.93-8.498c-4.027-4.772-8.64-8.908-13.59-12.654c-2.186-1.654-4.69-2.886-7.054-4.303
				c-0.338-0.203-0.696-0.373-1.045-0.558c0.033-0.107,0.066-0.215,0.1-0.322c1.396,0.258,2.872,0.31,4.17,0.816
				c3.721,1.452,7.452,2.92,11.019,4.704c2.822,1.411,5.348,3.404,8.117,4.936c1.787,0.988,3.745,1.702,5.685,2.365
				c1.406,0.48,2.215-0.258,2.281-1.768c0.08-1.801-0.787-3.269-1.717-4.672c-2.867-4.32-6.803-7.251-11.756-8.803
				c-1.033-0.323-2.067-0.634-3.229-0.99c0,0.531,0,0.818,0,1.104c-0.373-1.628-1.72-1.395-2.851-1.568
				c-2.646-0.406-5.275-0.986-7.935-1.208c-3.97-0.331-7.825-1.275-11.734-1.917c-1.913-0.314-3.742-1.144-5.608-1.748
				c-1.868-0.605-3.68-1.175-5.737-0.568c-1.145,0.338-2.484-0.063-3.705,0.102c-1.241,0.168-2.502,0.491-3.643,0.998
				c-0.73,0.325-1.26,1.105-1.928,1.724c0.954,1.526,1.967,3.246,0.622,5.034c-1.06,1.409-2.68,1.362-4.271,0.813
				c-1,2.398-1.23,4.932-0.506,7.302c0.938,3.062,2.471,5.899,5.274,7.797c0.47,0.318,0.839,0.792,1.235,1.21
				c1.344,1.421,2.677,2.854,4.026,4.27c0.158,0.166,0.4,0.251,0.514,0.497c-2.103,0.078-3.925-0.506-5.676-1.541
				c-3.318-1.962-6.68-3.859-10.068-5.698c-1.869-1.015-3.85-0.373-4.319,1.403c-0.224,0.846-0.156,1.868,0.087,2.721
				c0.726,2.527,2.639,4.332,4.184,6.342c3.041,3.957,6.167,7.848,9.262,11.764c1.897,2.403,2.883,5.182,3.068,8.19
				c0.189,3.058,0.429,6.157,0.138,9.19c-0.316,3.293-0.936,6.624-1.966,9.759c-0.679,2.064-0.768,4.131-1.347,6.282
				c2.08,0.091,3.829-0.217,5.479-1.261c1.702-1.076,3.507-1.991,5.265-2.976c0.912,2.84,1.74,5.426,2.537,7.907
				c-1.229-1.131-2.503-2.336-3.825-3.481c-0.206-0.18-0.69-0.208-0.962-0.101c-0.472,0.187-0.901,0.507-1.307,0.822
				c-2.296,1.791-5.008,2.023-7.743,1.949c-1.491-0.04-2.485-1.641-2.198-3.303c0.516-2.971,0.785-5.979,1.995-8.824
				c0.573-1.351,0.488-2.97,0.8-4.445c0.883-4.155,0.805-8.333,0.224-12.497c-0.419-3.001-2.167-5.351-4.068-7.643
				c-2.743-3.311-5.302-6.775-7.968-10.152c-1.515-1.919-3.114-3.766-4.062-6.071c-0.849-2.065-0.907-4.091,0.149-6.081
				c1.347-2.538,4.852-3.493,7.679-2.13c0.677,0.326,1.35,0.661,2.026,0.991c0.071,0.069,0.144,0.137,0.216,0.207
				C34.733,42.292,34.7,42.189,34.669,42.088z"/>
			<path fill-rule="evenodd" clip-rule="evenodd" fill="#FF88AA" d="M64.239,75.697c0,1.635,0.114,3.281-0.048,4.899
				c-0.084,0.837-0.539,1.711-1.036,2.42c-2.21,3.146-5.239,4.861-9.122,5.108c-3.352,0.213-5.363-1.011-5.749-4.232
				c-0.169-1.41,0.426-3.068,1.108-4.39c1.134-2.191,2.572-4.23,3.967-6.277c1.575-2.312,2.548-4.878,3.407-7.506
				c0.075-0.227,0.127-0.463,0.211-0.688c0.033-0.083,0.127-0.142,0.413-0.449c0.127,0.727,0.4,1.3,0.283,1.776
				c-1.153,4.722-2.444,9.391-5.239,13.488c-0.592,0.866-1.006,1.887-1.335,2.891c-0.474,1.45,0.573,2.783,2.062,2.679
				c2.229-0.157,4.353-0.649,6.108-2.176c1.536-1.334,2.361-3.098,3.132-4.919c0.396-0.934,0.943-1.8,1.422-2.698
				C63.963,75.649,64.101,75.674,64.239,75.697z"/>
			<path fill-rule="evenodd" clip-rule="evenodd" fill="#FF88AA" d="M53.91,39.041c-1.874,0.023-3.118-1.288-3.137-3.306
				c-0.018-1.969,1.235-3.305,3.129-3.333c1.851-0.029,3.197,1.423,3.313,3.343C57.311,37.321,55.644,39.305,53.91,39.041z"/>
			<path fill-rule="evenodd" clip-rule="evenodd" fill="#FF88AA" d="M104.984,59.179c0.441,4.897,0.883,9.794,1.322,14.691
				c-1.012-0.704-0.939-1.746-0.989-2.666c-0.148-2.681-0.157-5.368-0.24-8.051c-0.042-1.323-0.129-2.646-0.194-3.967
				C104.917,59.184,104.95,59.181,104.984,59.179z"/>
			<path fill-rule="evenodd" clip-rule="evenodd" fill="#FF88AA" d="M67.093,69.41c0.029,0.522,0.06,1.047,0.088,1.555
				c1.439,0.479,1.423,0.475,0.984,1.905c-0.486,1.595-0.938,3.199-1.366,4.659c0-2.598,0-5.352,0-8.104
				C66.896,69.419,66.995,69.415,67.093,69.41z"/>
			<path fill-rule="evenodd" clip-rule="evenodd" fill="#FF88AA" d="M90.249,92.045c1.46-0.623,1.131-2.015,1.447-3.199
				c0.51,0,1.04,0,1.569,0C93.736,90.531,92.118,92.313,90.249,92.045z"/>
			<path fill-rule="evenodd" clip-rule="evenodd" fill="#FF88AA" d="M59.061,107.176c0.534,0.675,0.932,1.397,2.073,1.327
				c0.788-0.048,1.161,1.279,0.621,2.021c-0.267,0.368-0.664,0.645-1.109,0.934c0.354-1.202-0.253-1.988-0.921-2.804
				c-0.33-0.403-0.443-0.985-0.654-1.486L59.061,107.176z"/>
			<path fill-rule="evenodd" clip-rule="evenodd" fill="#FF88AA" d="M58.865,106.749c-0.656-1.069-1.312-2.138-1.969-3.205
				c0.113-0.061,0.227-0.123,0.34-0.185c0.539,1.134,1.079,2.265,1.619,3.396L58.865,106.749z"/>
			<path fill-rule="evenodd" clip-rule="evenodd" fill="#FF88AA" d="M59.07,107.168c-0.068-0.14-0.138-0.28-0.205-0.419l-0.01,0.007
				c0.068,0.141,0.138,0.28,0.205,0.42L59.07,107.168z"/>
			<path fill-rule="evenodd" clip-rule="evenodd" fill="#FF88AA" d="M34.669,42.088c0.031,0.102,0.064,0.204,0.098,0.305
				c-0.072-0.069-0.145-0.138-0.216-0.207C34.59,42.155,34.629,42.122,34.669,42.088z"/>
		</g>
		<g>
			<g>
				<path fill="#FF88AA" d="M64,3c33.636,0,61,27.364,61,61s-27.364,61-61,61S3,97.636,3,64S30.364,3,64,3 M64,0
					C28.654,0,0,28.654,0,64c0,35.347,28.654,64,64,64c35.347,0,64-28.653,64-64C128,28.654,99.347,0,64,0L64,0z"/>
			</g>
		</g>
	</g>
</g>
<g id="Layer_3">
</g>
<g id="Layer_4">
</g>
</svg>
