<?xml version="1.0" encoding="utf-8"?>
<!-- Generator: Adobe Illustrator 16.0.0, SVG Export Plug-In . SVG Version: 6.00 Build 0)  -->
<!DOCTYPE svg PUBLIC "-//W3C//DTD SVG 1.1//EN" "http://www.w3.org/Graphics/SVG/1.1/DTD/svg11.dtd">
<svg version="1.1" xmlns="http://www.w3.org/2000/svg" xmlns:xlink="http://www.w3.org/1999/xlink" x="0px" y="0px" width="128px"
	 height="128px" viewBox="0 0 128 128" enable-background="new 0 0 128 128" xml:space="preserve">
<g id="Layer_1">
	<g>
		<g>
			<path fill="#FF0000" d="M64,3c33.636,0,61,27.364,61,61s-27.364,61-61,61S3,97.636,3,64S30.364,3,64,3 M64,0
				C28.654,0,0,28.654,0,64c0,35.347,28.654,64,64,64c35.347,0,64-28.653,64-64C128,28.654,99.347,0,64,0L64,0z"/>
		</g>
		<g>
			<path fill-rule="evenodd" clip-rule="evenodd" fill="#FF0000" d="M37.587,28.109c3.235,3.527,6.479,7.049,9.694,10.594
				c0.294,0.323,0.5,0.782,0.601,1.212c0.667,2.84,1.295,5.688,1.931,8.536c0.099,0.443,0.165,0.893,0.278,1.515
				c0.57-2.126,1.06-4.082,1.62-6.017c0.923-3.184,2.651-5.989,4.47-8.697c0.767-1.142,2.021-2.047,3.223-2.786
				c1.81-1.114,3.78-1.313,5.795-0.041c2.42-3.141,5.835-3.707,9.465-3.54c4.047,0.186,6.146,2.831,7.49,6.282
				c4.967-3.837,10.495-5.478,16.658-4.914c3.352,0.308,6.249,1.586,8.527,4.138c2.391,2.675,2.192,5.564-0.649,7.755
				c-1.102,0.851-2.354,1.511-3.549,2.239c-1.245,0.758-2.07,1.669-2.21,3.282c-0.482,5.484-0.545,10.965-0.456,16.465
				c0.057,3.469-0.274,6.943-0.433,10.416c-0.158-0.003-0.318-0.008-0.479-0.01c0-1.88-0.133-3.774,0.026-5.641
				c0.465-5.495,0.448-10.98-0.19-16.452c-0.108-0.939-0.79-1.81-1.183-2.723c-0.105-0.244-0.174-0.523-0.178-0.789
				c-0.007-0.514,0.045-1.029,0.093-1.918c-1.797,1.205-3.484,2.106-4.894,3.328c-2.923,2.534-5.043,5.717-6.292,9.366
				c-0.557,1.625-0.678,3.436-0.771,5.172c-0.218,4.043-0.125,8.109-0.489,12.134c-0.269,2.956-0.84,5.93-1.677,8.777
				c-1.088,3.696-3.649,6.438-6.768,8.688c0.909-2.094,0.991-4.458,2.467-6.37c1.982-2.568,2.654-5.66,2.879-8.812
				c0.326-4.561,0.568-9.131,0.712-13.701c0.275-8.814,4.271-15.401,11.77-19.894c2.803-1.679,5.712-3.174,8.566-4.763
				c0.306-0.169,0.579-0.401,0.86-0.612c2.14-1.599,2.185-2.72,0.244-4.6c-1.929-1.871-4.309-2.58-6.903-2.758
				c-4.207-0.288-8.107,0.75-11.73,2.838c-1.532,0.884-2.813,2.036-3.477,3.789c-0.154,0.407-0.858,0.893-1.251,0.846
				c-0.461-0.054-0.988-0.576-1.247-1.031c-0.242-0.423-0.168-1.027-0.239-1.549c-0.239-1.753-0.929-3.311-2.061-4.667
				c-0.179-0.213-0.39-0.409-0.615-0.574c-2.331-1.715-7.511-1.143-9.387,1.062c-0.246,0.291-0.529,0.818-0.423,1.094
				c0.626,1.628,0.451,3.281-0.162,4.759c-1.05,2.528,0.274,4.304,1.898,5.611c1.008,0.812,2.764,0.711,4.192,0.968
				c0.312,0.056,0.665-0.111,1.04-0.184c-0.598,1.747-3.367,2.144-6.145,1.02c-1.163,1.113-2.306,2.186-3.416,3.289
				c-0.146,0.146-0.166,0.447-0.188,0.683c-0.091,0.91-0.157,1.824-0.232,2.737c-0.018,0.21,0.013,0.441-0.063,0.628
				c-1.033,2.543-2.079,5.081-3.122,7.62c-0.152-0.037-0.302-0.074-0.454-0.112c0.054-0.726,0.006-1.477,0.176-2.173
				c1.268-5.176,2.137-10.399,2.464-15.731c0.114-1.864,0.854-3.689,1.308-5.532c0.285-1.152,0.586-2.408-0.499-3.229
				c-1.047-0.794-2.399-0.577-3.39,0.088c-1.201,0.806-2.39,1.798-3.212,2.969c-2.742,3.909-3.952,8.429-4.84,13.057
				c-0.188,0.979-0.562,1.946-0.99,2.852c-0.703,1.487-1.52,2.92-2.403,4.591c-0.155-0.693-0.266-1.178-0.375-1.664
				c-1.038-4.665-1.948-9.363-3.167-13.979c-0.622-2.354-1.426-4.833-2.829-6.758c-1.389-1.906-2.716-4.148-5.154-5.106
				c-2.093-0.822-3.397-0.088-3.895,2.078c-0.437,1.899,0.125,3.636,0.758,5.35c1.777,4.812,3.618,9.602,5.408,14.411
				c0.152,0.408,0.172,0.895,0.14,1.337c-0.086,1.155-0.148,2.325-0.4,3.45c-0.111,0.494-0.574,1.065-1.031,1.289
				c-0.641,0.314-1.419,0.377-2.149,0.479c-2.359,0.328-4.607,0.987-6.651,2.232c-1.466,0.895-2.465,2.178-2.981,3.826
				c0.01,0.105,0.021,0.209,0.03,0.313c0.078-0.039,0.156-0.077,0.234-0.116c2.114-0.711,3.599-0.385,4.542,0.998
				c1.132,1.658,1.034,4.001-0.231,5.516c-1.169,1.397-2.884,1.604-4.315,0.497c-0.847-0.655-1.669-1.343-2.52-2.029
				c-0.017,0.083-0.099,0.299-0.102,0.519c-0.064,5.307,1.523,9.691,6.708,12.104c0.824,0.383,1.542,0.988,2.353,1.404
				c4.85,2.49,9.915,4.08,15.425,3.038c3.244-0.612,6.285-1.828,8.705-4.228c0.143-0.142,0.309-0.261,0.697-0.582
				c-0.133,0.514-0.125,0.814-0.27,0.986c-0.561,0.66-1.061,1.473-1.781,1.885c-3.044,1.743-6.371,2.756-9.791,3.48
				c-2.392,0.507-4.693-0.223-7.009-0.563c-2.315-0.34-4.598-0.909-6.981-1.396c-0.577,1.346-1.232,2.893-1.901,4.433
				c-0.904,2.085-2.057,3.988-3.715,5.592c-0.484,0.468-0.658,1.255-1.023,1.997c1.861,0.43,3.596,0.65,5.169-0.238
				c1.394-0.787,2.661-1.807,3.945-2.774c1.004-0.755,1.949-1.588,2.997-2.45c-0.415-0.298-0.798-0.576-1.266-0.913
				c0.365-0.784,0.728-1.565,1.13-2.431c2.688,1.504,5.193,3.128,7.05,5.536c1.179,1.528,1.053,3.284,0.478,5.033
				c-0.099,0.301-0.218,0.605-0.234,0.914c-0.053,1.044,0.894,1.63,1.872,1.299c2.547-0.86,4.667-2.37,6.611-4.173
				c1.863-1.728,4.064-2.885,6.406-3.803c0.26-0.104,0.535-0.202,0.81-0.226c2.922-0.235,5.845-0.455,8.896-0.689
				c-0.431,1.517-0.876,3.084-1.408,4.957c-0.115-0.804-0.186-1.294-0.269-1.876c-4.305,0.109-8.543,0.164-12.028,3.257
				c-1.496,1.329-3.097,2.553-4.732,3.709c-2.621,1.855-6.623,1.217-9.238-0.828c1.371-3.263,0.833-5.862-1.745-8.023
				c-1.503,1.226-2.962,2.559-4.57,3.679c-1.542,1.075-3.205,1.991-4.883,2.841c-0.485,0.246-1.209,0.034-1.822,0.006
				c-0.276-0.011-0.551-0.129-0.826-0.126c-2.916,0.029-4.472-2.27-3.274-4.951c1.435-3.207,2.958-6.376,4.428-9.568
				c0.249-0.537,0.426-1.107,0.646-1.691c-0.126-0.098-0.204-0.17-0.293-0.223c-3.325-1.964-5.261-5.116-7.082-8.348
				c-1.374-2.436-1.646-5.084-1.084-7.784c0.515-2.469,1.462-4.82,3.044-6.788c2.77-3.445,6.486-5.297,10.839-5.914
				c0.592-0.084,1.183-0.178,1.774-0.272c0.067-0.011,0.129-0.054,0.499-0.157c-0.249-1.097-0.447-2.209-0.756-3.29
				c-1.307-4.574-3.021-8.991-4.982-13.329c-1.161-2.567-1.664-5.293-0.75-8.121c0.73-2.257,2.221-3.453,4.652-3.587
				C36.6,28.131,37.093,28.12,37.587,28.109z"/>
			<path fill-rule="evenodd" clip-rule="evenodd" fill="#FF0000" d="M54.062,73.628c-0.013,2.276-2.042,4.371-4.198,4.332
				c-1.953-0.035-3.593-2.201-3.594-4.747c0-2.106,1.469-3.754,3.354-3.758C51.769,69.45,54.074,71.617,54.062,73.628z"/>
			<path fill-rule="evenodd" clip-rule="evenodd" fill="#FF0000" d="M37.587,28.109c-0.494,0.01-0.987,0.021-1.482,0.033
				c0.155-0.063,0.309-0.125,0.498-0.202c-2.679-3.593-6.713-6.094-8.357-10.425c0.09-0.077,0.181-0.155,0.271-0.232
				c0.092,0.076,0.198,0.139,0.274,0.228c2.792,3.334,5.584,6.67,8.372,10.008C37.317,27.704,37.446,27.911,37.587,28.109z"/>
			<path fill-rule="evenodd" clip-rule="evenodd" fill="#FF0000" d="M100.052,87.973c0.271,1.921,0.539,3.845,0.807,5.767
				c-1.078,0.168-1.792-0.375-1.68-1.385c0.165-1.468,0.459-2.92,0.695-4.378C99.936,87.975,99.993,87.974,100.052,87.973z"/>
			<path fill-rule="evenodd" clip-rule="evenodd" fill="#FF0000" d="M27.311,65.834c-0.079,0.039-0.157,0.077-0.234,0.116
				c-0.009-0.104-0.02-0.208-0.03-0.313C27.134,65.703,27.222,65.769,27.311,65.834z"/>
		</g>
	</g>
</g>
<g id="Layer_2">
</g>
<g id="Layer_3">
</g>
<g id="Layer_4">
</g>
</svg>
