<?xml version="1.0" encoding="utf-8"?>
<!-- Generator: Adobe Illustrator 16.0.0, SVG Export Plug-In . SVG Version: 6.00 Build 0)  -->
<!DOCTYPE svg PUBLIC "-//W3C//DTD SVG 1.1//EN" "http://www.w3.org/Graphics/SVG/1.1/DTD/svg11.dtd">
<svg version="1.1" id="Layer_1" xmlns="http://www.w3.org/2000/svg" xmlns:xlink="http://www.w3.org/1999/xlink" x="0px" y="0px"
	 width="543.39px" height="177.479px" viewBox="0 0 543.39 177.479" enable-background="new 0 0 543.39 177.479"
	 xml:space="preserve">
<g>
	<g>
		<path fill="#FFFFFF" d="M106.195,93.018v-0.62h23.688L168.827,0.62h-23.688V0h55.19v0.62h-29.642l-38.943,91.777h36.835
			c8.062,0,12.402-2.729,15.379-9.798l18.107-43.036l0.62,0.372l-22.324,53.082H106.195z"/>
		<path fill="#FFFFFF" d="M254.522,65.36c-6.697,19.72-14.015,28.277-20.092,28.277c-2.729,0-4.589-1.488-5.829-3.473
			c-1.736-2.604-2.232-7.689-0.744-13.395c-6.449,12.154-13.395,16.867-19.472,16.867c-4.093,0-7.317-2.356-9.426-5.829
			c-2.108-3.349-4.341-10.666,0.496-20.96l1.984-4.217l5.705-12.278c4.713-10.046,2.232-19.348-3.969-19.348
			c-5.829,0-12.774,8.434-19.596,27.905l-0.496-0.248c6.697-19.72,14.015-28.277,20.092-28.277c2.729,0,4.589,1.488,5.829,3.473
			c2.232,3.473,2.356,11.038-1.24,18.728l-6.945,14.883c-6.821,14.511-0.496,25.549,7.565,25.549c6.201,0,13.643-4.961,20.96-20.588
			l4.589-9.798l1.116-2.356l13.767-29.27h1.364v0.62l-15.131,32.122l-4.589,9.922c-4.713,10.046-2.232,19.348,3.969,19.348
			c5.829,0,12.774-8.434,19.596-27.905L254.522,65.36z"/>
		<path fill="#FFFFFF" d="M248.936,70.321c0-22.572,17.612-39.936,32.495-39.936c9.922,0,15.998,7.317,15.998,15.503
			c0,1.488-0.867,2.48-1.984,2.48c-1.115,0-1.859-0.868-1.859-1.86c0-1.116,0.867-1.86,1.859-1.86c0.496,0,0.992,0.248,1.24,0.496
			l0.125-0.124c-0.125-5.829-4.713-14.015-15.504-14.015c-10.17,0-21.208,8.806-26.541,21.208
			c-3.225,7.441-4.465,13.643-4.465,19.968c0,11.038,6.325,20.836,17.488,20.836c13.891,0,23.688-13.891,28.029-28.773l0.619,0.248
			c-4.961,16.247-14.883,29.146-28.648,29.146C255.757,93.638,248.936,83.468,248.936,70.321z"/>
		<path fill="#FFFFFF" d="M354.054,65.36c-6.945,20.216-11.285,28.277-17.486,28.277c-5.953,0-8.559-4.217-10.17-14.511
			l-1.861-11.782c-1.363-8.682-3.844-11.41-9.053-11.41c-3.598,0-7.689,2.356-10.666,8.682l-13.52,28.401h-1.363v-0.62L332.847,0.62
			h-24.309V0h26.045v0.62l-27.41,58.291c11.535-19.844,24.186-28.525,35.719-28.525c6.326,0,10.418,3.721,10.418,6.945
			c0,1.364-0.744,2.356-1.984,2.356c-1.115,0-1.984-0.868-1.984-1.984c0-0.744,0.496-2.356,2.729-1.86l0.248-0.124
			c-1.363-2.729-4.588-4.713-9.549-4.713c-11.783,0-24.309,9.674-35.596,28.773c1.365-1.488,4.217-4.465,8.434-4.465
			c5.83,0,9.055,3.597,10.418,11.906l1.861,11.782c1.736,10.666,4.465,14.015,8.682,14.015c5.953,0,10.045-7.938,16.99-27.905
			L354.054,65.36z"/>
		<path fill="#FFFFFF" d="M415.317,31.006h1.365v0.62l-32.371,69.329c-7.564,16.247-14.758,23.688-25.053,23.688
			c-8.557,0-13.395-7.193-13.395-14.511c0-14.387,13.395-23.068,29.27-27.161v-0.248c-3.348-0.744-5.332-2.604-6.82-5.085
			c-1.861-2.977-3.473-8.434-1.117-15.007l0.496-1.24l0.248-0.372l0.621-1.24l4.34-9.426c4.713-10.046,2.232-19.348-3.969-19.348
			c-5.828,0-12.773,8.434-19.596,27.905l-0.496-0.248c6.697-19.72,14.016-28.277,20.092-28.277c2.729,0,4.59,1.488,5.83,3.473
			c2.232,3.473,2.355,11.038-1.24,18.728l-2.605,5.581l-2.232,4.837c-4.465,9.55,0.869,19.1,7.689,19.1
			c3.225,0,16.619-3.597,22.076-15.255L415.317,31.006z M396.714,70.941c-6.449,8.806-14.635,10.666-21.58,12.65
			c-13.766,3.845-20.836,10.046-24.805,16.619c-1.736,2.853-3.348,6.697-3.348,11.162c0,6.945,5.084,12.65,12.402,12.65
			c10.789,0,16.494-8.434,24.309-25.053L396.714,70.941z"/>
		<path fill="#FFFFFF" d="M0,123.579v-7.268c0-17.624,13.808-30.887,32.098-30.887c14.414,0,25.981,8.297,30.22,20.47l-14.353,6.177
			c-2.968-6.48-8.418-11.082-15.867-11.082c-9.024,0-15.747,6.722-15.747,15.625v6.662c0,8.902,6.723,15.625,15.747,15.625
			c7.449,0,12.899-4.604,15.867-11.084l14.353,6.178c-4.239,12.173-15.807,20.471-30.22,20.471C13.808,154.466,0,141.202,0,123.579z
			"/>
		<path fill="#FFFFFF" d="M57.476,123.579v-7.268c0-17.624,13.808-30.887,32.098-30.887c18.229,0,32.098,13.263,32.098,30.887v7.268
			c0,17.623-13.869,30.887-32.098,30.887C71.284,154.466,57.476,141.202,57.476,123.579z M105.32,123.276v-6.662
			c0-8.903-6.783-15.625-15.747-15.625c-9.023,0-15.746,6.722-15.746,15.625v6.662c0,8.902,6.723,15.625,15.746,15.625
			C98.537,138.901,105.32,132.179,105.32,123.276z"/>
		<path fill="#FFFFFF" d="M183.084,113.403v39.851h-16.352v-37.245c0-8.479-6.359-14.838-14.837-14.838
			c-8.479,0-14.838,6.358-14.838,14.838v37.245h-16.352V86.636h15.928v5.026c4.724-3.937,10.841-6.238,17.684-6.238
			C170.668,85.424,183.084,97.416,183.084,113.403z"/>
		<path fill="#FFFFFF" d="M245.95,126.425h-47.663c1.151,7.631,7.389,13.082,15.504,13.082c6.48,0,11.628-3.514,14.959-8.964
			l14.05,6.904c-5.996,11.022-16.412,17.019-28.948,17.019c-18.29,0-32.098-13.264-32.098-30.887v-7.268
			c0-17.624,13.808-30.887,32.098-30.887c18.229,0,32.098,13.263,32.098,30.887V126.425z M198.287,113.464h31.129
			c-1.03-7.752-7.389-13.322-15.564-13.322C205.615,100.142,199.317,105.712,198.287,113.464z"/>
		<path fill="#FFFFFF" d="M236.504,161.914h4.481c1.938,0,3.392-1.453,3.392-3.331V86.636h16.352v73.34
			c0,9.934-7.752,17.503-17.926,17.503h-6.298V161.914z M244.377,62.411h16.352v19.198h-16.352V62.411z"/>
		<path fill="#FFFFFF" d="M259.768,123.579v-7.268c0-17.624,13.809-30.887,32.098-30.887c18.229,0,32.098,13.263,32.098,30.887
			v7.268c0,17.623-13.869,30.887-32.098,30.887C273.577,154.466,259.768,141.202,259.768,123.579z M307.612,123.276v-6.662
			c0-8.903-6.783-15.625-15.746-15.625c-9.023,0-15.746,6.722-15.746,15.625v6.662c0,8.902,6.723,15.625,15.746,15.625
			C300.829,138.901,307.612,132.179,307.612,123.276z"/>
		<path fill="#FFFFFF" d="M387.192,115.524v8.842c0,17.139-12.959,30.1-30.1,30.1c-7.025,0-13.322-2.424-18.168-6.541v5.329h-15.928
			V62.411h16.352v29.251c4.785-3.937,10.9-6.238,17.744-6.238C374.233,85.424,387.192,98.385,387.192,115.524z M370.841,116.735
			c0-9.024-6.783-15.746-15.746-15.746c-9.023,0-15.746,6.722-15.746,15.746v6.419c0,9.024,6.723,15.747,15.746,15.747
			c8.963,0,15.746-6.723,15.746-15.747V116.735z"/>
		<path fill="#FFFFFF" d="M448.907,126.425h-47.662c1.15,7.631,7.389,13.082,15.504,13.082c6.48,0,11.627-3.514,14.959-8.964
			l14.051,6.904c-5.996,11.022-16.414,17.019-28.949,17.019c-18.289,0-32.098-13.264-32.098-30.887v-7.268
			c0-17.624,13.809-30.887,32.098-30.887c18.229,0,32.098,13.263,32.098,30.887V126.425z M401.245,113.464h31.129
			c-1.029-7.752-7.389-13.322-15.564-13.322C408.573,100.142,402.274,105.712,401.245,113.464z"/>
		<path fill="#FFFFFF" d="M505.052,109.831v43.423h-15.93v-5.147c-4.117,3.633-9.508,5.753-15.504,5.753h-9.568
			c-11.627,0-20.348-8.539-20.348-19.804s8.721-19.743,20.348-19.743h19.926c2.664,0,4.723-2.06,4.723-4.784
			c0-4.664-3.693-8.176-8.6-8.176h-8.963c-5.572,0-8.902,2.24-12.111,8.902l-13.809-7.207c5.572-11.567,13.809-17.018,25.557-17.018
			h9.387C494.331,86.03,505.052,96.265,505.052,109.831z M488.698,127.817v-2.604c-1.332,0.484-3.027,0.787-4.844,0.787h-15.625
			c-4.422,0-7.752,3.089-7.752,7.146c0,4.118,3.209,7.207,7.51,7.207h7.934C483.188,140.354,488.698,134.964,488.698,127.817z"/>
		<path fill="#FFFFFF" d="M527.341,101.776v31.734c0,2.846,2.119,5.026,4.965,5.026h9.023v15.504h-10.053
			c-11.566,0-20.289-8.539-20.289-19.925v-32.34h-11.809V86.636h11.809V68.043h16.354v18.593h16.049v15.141H527.341z"/>
	</g>
	<g id="sparkles_1_">
		<g id="sparkles_L_1_">
			<g>
				<path fill="#FFFFFF" d="M115.981,23.406c0,11.74-5.552,21.26-12.4,21.26c6.849,0,12.4,9.519,12.401,21.259
					c0-11.74,5.553-21.259,12.401-21.259C121.535,44.666,115.982,35.146,115.981,23.406z"/>
			</g>
			<g>
				<path fill="#FFFFFF" d="M125.571,13.295c0,3.913-3.173,7.087-7.086,7.087c3.913,0,7.086,3.173,7.086,7.086
					c0-3.913,3.173-7.086,7.087-7.086C128.744,20.382,125.571,17.208,125.571,13.295z"/>
			</g>
			<g>
				<path fill="#FFFFFF" d="M136.201,31.012c0,1.957-1.587,3.543-3.543,3.543c1.956,0,3.543,1.586,3.543,3.543
					c0-1.957,1.586-3.543,3.543-3.543C137.787,34.555,136.201,32.969,136.201,31.012z"/>
			</g>
		</g>
		<g id="sparkles_R_2_">
			<g>
				<path fill="#FFFFFF" d="M437.746,47.165c0-9.783,4.758-17.717,10.63-17.717c-5.872,0-10.63-7.932-10.63-17.716
					c0,9.784-4.76,17.716-10.632,17.716C432.986,29.448,437.746,37.382,437.746,47.165z"/>
			</g>
			<g>
				<path fill="#FFFFFF" d="M425.342,61.339c0-5.87,3.968-10.63,8.86-10.63c-4.893,0-8.86-4.76-8.86-10.631
					c0,5.871-3.965,10.631-8.857,10.631C421.377,50.709,425.342,55.469,425.342,61.339z"/>
			</g>
			<g>
				<path fill="#FFFFFF" d="M448.374,54.251c0-1.956,1.587-3.543,3.544-3.543c-1.957,0-3.544-1.586-3.544-3.543
					c0,1.957-1.585,3.543-3.542,3.543C446.789,50.708,448.374,52.295,448.374,54.251z"/>
			</g>
			<g>
				<path fill="#FFFFFF" d="M421.799,25.904c0-2.935,2.38-5.313,5.315-5.313c-2.936,0-5.315-2.38-5.315-5.315
					c0,2.936-2.378,5.315-5.314,5.315C419.421,20.591,421.799,22.97,421.799,25.904z"/>
			</g>
		</g>
	</g>
</g>
<g>
</g>
<g>
</g>
<g>
</g>
<g>
</g>
<g>
</g>
<g>
</g>
</svg>
