<?xml version="1.0" encoding="utf-8"?>
<!-- Generator: Adobe Illustrator 16.0.0, SVG Export Plug-In . SVG Version: 6.00 Build 0)  -->
<!DOCTYPE svg PUBLIC "-//W3C//DTD SVG 1.1//EN" "http://www.w3.org/Graphics/SVG/1.1/DTD/svg11.dtd">
<svg version="1.1" id="Layer_1" xmlns="http://www.w3.org/2000/svg" xmlns:xlink="http://www.w3.org/1999/xlink" x="0px" y="0px"
	 width="56.69px" height="54.049px" viewBox="0 0 56.69 54.049" enable-background="new 0 0 56.69 54.049" xml:space="preserve">
<g id="sakura_2">
	<g>
		<g>
			<path fill="#FFFFFF" d="M56.691,23.202l-9.646-0.641l7.427-6.188c-2.835-2.918-7.854-4.011-12.802-2.403
				c-1.586,0.515-3.013,1.261-4.243,2.167c0.48-1.45,0.75-3.037,0.75-4.705c0-5.202-2.59-9.639-6.242-11.432l-3.59,8.975L24.754,0
				c-3.652,1.793-6.242,6.23-6.242,11.432c0,1.667,0.269,3.255,0.75,4.705c-1.23-0.905-2.657-1.651-4.243-2.167
				c-4.947-1.607-9.967-0.516-12.802,2.404l7.426,6.188l-9.645,0.641c0.577,4.027,3.997,7.862,8.944,9.468
				c1.586,0.516,3.179,0.751,4.706,0.741c-1.241,0.89-2.391,2.017-3.372,3.366c-3.057,4.208-3.57,9.319-1.669,12.918l8.18-5.15
				l-2.371,9.37c4.009,0.695,8.712-1.372,11.77-5.58c0.98-1.349,1.696-2.791,2.159-4.247c0.462,1.456,1.179,2.898,2.158,4.247
				c3.058,4.208,7.761,6.275,11.771,5.58l-2.371-9.371l8.18,5.15c1.899-3.598,1.388-8.709-1.67-12.917
				c-0.98-1.35-2.131-2.476-3.372-3.366c1.527,0.01,3.12-0.226,4.705-0.741C52.693,31.064,56.112,27.23,56.691,23.202z"/>
		</g>
		<g>
			
				<line fill="none" stroke="#FF3300" stroke-width="0.6145" stroke-miterlimit="10" x1="28.344" y1="28.637" x2="40.033" y2="24.84"/>
			<circle fill="#FF3300" cx="38.864" cy="25.219" r="1.808"/>
			
				<line fill="none" stroke="#FF3300" stroke-width="0.6145" stroke-miterlimit="10" x1="28.346" y1="28.637" x2="35.568" y2="38.58"/>
			<circle fill="#FF3300" cx="34.846" cy="37.585" r="1.808"/>
			
				<line fill="none" stroke="#FF3300" stroke-width="0.6145" stroke-miterlimit="10" x1="28.346" y1="28.638" x2="21.121" y2="38.58"/>
			<circle fill="#FF3300" cx="21.843" cy="37.586" r="1.808"/>
			
				<line fill="none" stroke="#FF3300" stroke-width="0.6145" stroke-miterlimit="10" x1="28.344" y1="28.639" x2="16.657" y2="24.84"/>
			<circle fill="#FF3300" cx="17.825" cy="25.22" r="1.808"/>
			
				<line fill="none" stroke="#FF3300" stroke-width="0.6145" stroke-miterlimit="10" x1="28.344" y1="28.638" x2="28.344" y2="16.348"/>
			<circle fill="#FF3300" cx="28.345" cy="17.577" r="1.808"/>
		</g>
	</g>
</g>
<g>
</g>
<g>
</g>
<g>
</g>
<g>
</g>
<g>
</g>
<g>
</g>
<g>
</g>
</svg>
