<?xml version="1.0" encoding="utf-8"?>
<!-- Generator: Adobe Illustrator 25.4.1, SVG Export Plug-In . SVG Version: 6.00 Build 0)  -->
<svg version="1.1" id="Layer_1" xmlns="http://www.w3.org/2000/svg" xmlns:xlink="http://www.w3.org/1999/xlink" x="0px" y="0px"
	 viewBox="0 0 702.2 134.1" style="enable-background:new 0 0 702.2 134.1;" xml:space="preserve">
<style type="text/css">
	.st0{fill:#FFFFFF;}
</style>
<g id="Layer_2_00000136402650751684714360000001937298824606757253_">
	<g id="Layer_1-2">
		<path class="st0" d="M47.2,58.7c-0.3-2.6-1.2-5.1-2.7-7.3c-2.1-2.9-5.4-4.4-9.9-4.4c-6.3,0-10.7,3.2-13,9.5
			c-1.2,3.3-1.8,7.8-1.9,13.4c0,5.3,0.6,9.6,1.9,12.8c2.3,6,6.5,9,12.7,9c4.4,0,7.5-1.2,9.4-3.6c2-2.7,3.1-5.9,3.4-9.3h19.2
			c-0.5,5.9-2.7,11.5-6.2,16.3c-5.9,8.3-14.7,12.4-26.3,12.4S13.7,104,8.2,97.2C2.7,90.3,0,81.3,0,70.3c0-12.4,3-22,9.1-28.9
			s14.4-10.3,25-10.3c9,0,16.4,2,22.2,6.1s9.2,11.2,10.2,21.5H47.2z"/>
		<path class="st0" d="M133.6,96.2c-6.1,7.5-15.3,11.3-27.7,11.3s-21.6-3.8-27.7-11.3C72,88.7,69,79.6,69,69c-0.2-9.8,3-19.3,9.1-27
			c6.1-7.6,15.3-11.5,27.7-11.5c12.4,0,21.6,3.8,27.7,11.5c6.1,7.6,9.1,16.7,9.1,27.1C142.7,79.6,139.7,88.7,133.6,96.2z
			 M118.5,85.8c3-3.9,4.4-9.5,4.4-16.7s-1.5-12.8-4.4-16.7c-2.9-3.9-7.2-5.8-12.7-5.8c-5.5,0-9.8,1.9-12.7,5.8
			c-3,3.9-4.5,9.5-4.5,16.7c0,7.2,1.5,12.8,4.5,16.7c3,3.9,7.2,5.9,12.7,5.9C111.3,91.6,115.5,89.7,118.5,85.8z"/>
		<path class="st0" d="M206.6,37c4.7,3.9,7.1,10.4,7.1,19.4V105h-19.3V61.1c0-3.8-0.5-6.7-1.5-8.7c-1.8-3.7-5.4-5.6-10.6-5.6
			c-6.4,0-10.8,2.7-13.2,8.1c-1.4,3.5-2,7.2-1.9,11V105h-18.8V33h18.2v10.5c1.8-3,4.2-5.7,6.9-8c3.9-2.9,8.8-4.4,14.8-4.4
			C195.7,31.1,201.8,33.1,206.6,37z"/>
		<path class="st0" d="M268.9,34.3c4.9,2.3,9,6,11.9,10.7c2.9,4.5,4.8,9.6,5.5,14.9c0.5,4.7,0.7,9.5,0.6,14.3h-49.4
			c0.3,7.3,2.6,12.3,6.8,15.2c2.8,1.9,6.1,2.8,9.4,2.7c3.5,0.2,6.8-1,9.5-3.3c1.5-1.4,2.7-3.1,3.5-5H286c-0.5,4.3-2.7,8.6-6.7,13
			c-6.2,7-14.8,10.5-25.9,10.5c-8.9,0.1-17.5-3.1-24.3-8.9c-7-5.9-10.5-15.5-10.5-28.8c0-12.5,3.2-22.1,9.5-28.7s14.5-10,24.6-10
			C258.3,30.8,263.8,31.9,268.9,34.3z M242.6,50.6c-2.4,2.7-3.9,6.4-4.6,11.1h29.3c-0.3-5-1.8-8.8-4.5-11.3c-2.7-2.6-6.3-4-10.1-3.9
			C248.3,46.5,245,47.8,242.6,50.6z"/>
		<path class="st0" d="M284,118.8c1.1,0.1,1.8,0.1,2.2,0.2s0.8,0,1.2,0c1.5,0.1,3-0.4,4.2-1.4c1-0.9,1.4-2.7,1.4-5.3V33.2h18.9v79.5
			c0,7.3-1.4,12.7-4.3,16.1c-2.9,3.5-8.5,5.2-16.9,5.2c-0.6,0-1.4,0-2.5-0.1c-1.1,0-2.5-0.1-4.2-0.1L284,118.8z M311.9,24.2h-18.8
			V6.8h18.9L311.9,24.2z"/>
		<path class="st0" d="M382.2,96.2c-6.1,7.5-15.3,11.3-27.7,11.3c-12.4,0-21.6-3.8-27.7-11.3c-6.1-7.5-9.1-16.6-9.1-27.2
			c0-10.4,3-19.4,9.1-27.1s15.3-11.4,27.7-11.5c12.4,0,21.6,3.8,27.7,11.5c6.1,7.7,9.3,17.3,9.1,27.1
			C391.4,79.6,388.3,88.7,382.2,96.2z M367.2,85.8c3-3.9,4.4-9.5,4.4-16.7s-1.5-12.8-4.4-16.7c-3-3.9-7.2-5.8-12.7-5.8
			s-9.8,1.9-12.7,5.8c-3,3.9-4.5,9.5-4.5,16.7c0,7.2,1.5,12.8,4.5,16.7c3,3.9,7.2,5.9,12.7,5.9S364.2,89.7,367.2,85.8z"/>
		<path class="st0" d="M458.6,41.5c5.3,6.8,8,15.7,8,26.5c0,11.2-2.6,20.5-7.9,27.9c-5.3,7.4-12.7,11-22.2,11.1
			c-6,0-10.7-1.2-14.4-3.6c-2.8-2-5.1-4.5-7-7.4v9.1h-18.4V7.5h18.8v34.7c2.1-3.1,4.8-5.7,7.9-7.7c3.4-2.2,7.7-3.3,13-3.3
			C445.9,31.2,453.3,34.7,458.6,41.5z M442.9,85.4c2.7-3.9,4-9.1,4-15.5c0.1-4.3-0.5-8.6-2-12.7c-2.5-6.3-7.1-9.5-13.9-9.5
			c-6.8,0-11.4,3.1-14,9.3c-1.5,4.1-2.1,8.5-2,12.8c0,6.2,1.4,11.3,4.1,15.4c2.7,4.1,6.9,6.1,12.5,6.1
			C436.1,91.5,440.4,89.2,442.9,85.4z"/>
		<path class="st0" d="M521.5,34.3c4.9,2.3,9,6,11.9,10.7c2.9,4.5,4.8,9.6,5.5,14.9c0.5,4.7,0.7,9.5,0.6,14.3h-49.4
			c0.3,7.3,2.5,12.3,6.9,15.2c2.8,1.9,6.1,2.8,9.4,2.7c3.5,0.2,6.8-1,9.5-3.3c1.5-1.4,2.7-3.1,3.5-5h19.3c-0.5,4.3-2.7,8.6-6.7,13
			c-6.2,7-14.8,10.5-25.9,10.5c-8.9,0.1-17.5-3.1-24.3-8.9c-7-5.9-10.5-15.5-10.5-28.8c0-12.5,3.2-22.1,9.5-28.7s14.6-10,24.6-10
			C510.9,30.8,516.4,31.9,521.5,34.3z M495.1,50.6c-2.4,2.7-3.9,6.4-4.5,11.1h29.3c-0.3-5-1.8-8.8-4.5-11.3c-2.7-2.6-6.3-4-10.1-3.9
			C500.9,46.5,497.5,47.8,495.1,50.6z"/>
		<path class="st0" d="M576,61.1c2.6-0.2,5.1-0.8,7.5-1.7c2.7-1.2,4-2.9,4-5.4c0-3-1-5-3.1-6.1c-2.1-1.1-5.1-1.7-9-1.7
			c-4.5,0-7.6,1.1-9.5,3.3c-1.5,1.9-2.4,4.2-2.7,6.6h-18.2c0.4-6.3,2.2-11.5,5.3-15.5c5-6.4,13.5-9.5,25.7-9.5
			c7.3-0.1,14.5,1.5,21,4.7c6.1,3.1,9.2,9,9.2,17.7v33.1c0,2.3,0,5.1,0.1,8.3c0.1,2.5,0.5,4.1,1.1,5c0.7,1,1.7,1.7,2.8,2.2v2.8
			h-20.5c-0.5-1.3-0.9-2.7-1.2-4.1c-0.2-1.3-0.4-2.7-0.5-4.4c-2.6,2.8-5.7,5.3-9,7.2c-4.2,2.4-8.9,3.6-13.8,3.5
			c-6.5,0-11.9-1.9-16.2-5.6c-4.3-3.7-6.4-9-6.4-15.8c0-8.9,3.4-15.3,10.3-19.2c3.8-2.2,9.3-3.7,16.5-4.6L576,61.1z M587.5,69.9
			c-1.1,0.7-2.3,1.3-3.6,1.8c-1.6,0.6-3.3,1-5,1.3l-4.2,0.8c-4,0.7-6.8,1.6-8.5,2.6c-2.9,1.6-4.5,4.7-4.4,8c0,3.2,0.9,5.5,2.7,7
			c1.9,1.5,4.2,2.2,6.5,2.2c4,0,7.9-1.2,11.2-3.6c3.4-2.4,5.2-6.7,5.3-13V69.9z"/>
		<path class="st0" d="M610.1,46.9V33.5h10V13.4h18.7v20.1h11.7v13.4h-11.7V85c0,2.9,0.4,4.8,1.1,5.5c0.8,0.7,3,1.1,6.9,1.1h1.8
			c0.6,0,1.3-0.1,1.9-0.1v14.1l-8.9,0.3c-8.9,0.3-15-1.2-18.3-4.6c-2.1-2.2-3.2-5.5-3.2-10V46.9H610.1z"/>
		<path class="st0" d="M684.6,65.3V53.5l-8.1,3v11.7l-9.2,3.4V59.8l-8.3,3V51.7l8.3-3V32.5l-8.3,3V24.4l8.3-3V9.7l9.2-3.3v11.7
			l8.1-3V3.4l9.2-3.4v11.8l8.3-3v11.1l-8.3,3V39l8.3-3v11.2l-8.3,3v11.8L684.6,65.3z M684.6,42.3V26.2l-8.1,3v16.1L684.6,42.3z"/>
	</g>
</g>
</svg>
