<svg xmlns="http://www.w3.org/2000/svg" viewBox="0 0 702.15 134.07"><g id="Layer_2" data-name="Layer 2"><g id="Layer_1-2" data-name="Layer 1"><path d="M47.18,58.7a16.65,16.65,0,0,0-2.71-7.28q-3.18-4.37-9.86-4.37-9.52,0-13,9.46-1.84,5-1.85,13.37,0,8,1.85,12.77,3.38,9,12.71,9,6.61,0,9.4-3.57a17.82,17.82,0,0,0,3.37-9.26H66.31A31.62,31.62,0,0,1,60.09,95.1q-8.87,12.38-26.27,12.37T8.21,97.15Q0,86.82,0,70.35q0-18.6,9.07-28.92t25-10.33q13.56,0,22.2,6.09T66.51,58.7Z"/><path d="M133.58,96.19q-9.14,11.28-27.73,11.28T78.12,96.19Q69,84.91,69,69A42.12,42.12,0,0,1,78.12,42q9.13-11.46,27.73-11.45T133.58,42q9.13,11.45,9.13,27.06Q142.71,84.91,133.58,96.19ZM118.49,85.76q4.44-5.88,4.44-16.74t-4.44-16.71q-4.42-5.85-12.7-5.85T93.05,52.31Q88.58,58.18,88.58,69t4.47,16.74q4.47,5.89,12.74,5.89T118.49,85.76Z"/><path d="M206.55,37q7.11,5.85,7.11,19.42V105H194.34V61.08q0-5.69-1.53-8.73-2.77-5.57-10.58-5.56-9.6,0-13.17,8.14a27.84,27.84,0,0,0-1.85,11V105h-18.8V33h18.2V43.48a32,32,0,0,1,6.88-8q5.82-4.36,14.76-4.37Q199.43,31.1,206.55,37Z"/><path d="M268.92,34.28a28.47,28.47,0,0,1,11.92,10.65,36.47,36.47,0,0,1,5.49,14.89,96.9,96.9,0,0,1,.59,14.3H237.56Q238,85,244.37,89.34a16.05,16.05,0,0,0,9.4,2.71,13.49,13.49,0,0,0,9.46-3.31,15.64,15.64,0,0,0,3.51-5H286q-.74,6.42-6.69,13-9.26,10.52-25.94,10.52a36.58,36.58,0,0,1-24.28-8.87q-10.53-8.86-10.53-28.85,0-18.73,9.5-28.72t24.65-10A37.76,37.76,0,0,1,268.92,34.28ZM242.55,50.56Q239,54.66,238,61.68h29.32q-.46-7.49-4.54-11.35a14.08,14.08,0,0,0-10.09-3.87Q246.16,46.46,242.55,50.56Z"/><path d="M284,118.79c1.06.09,1.81.14,2.25.16s.83,0,1.19,0a5.89,5.89,0,0,0,4.2-1.36q1.43-1.36,1.42-5.26V33.15h18.86V112.7q0,10.92-4.3,16.15t-16.87,5.22q-.87,0-2.55-.06c-1.13,0-2.53-.09-4.2-.13Zm27.92-94.57H293.08V6.82h18.86Z"/><path d="M382.25,96.19q-9.13,11.28-27.73,11.28T326.79,96.19Q317.65,84.91,317.66,69q0-15.61,9.13-27.06t27.73-11.45q18.59,0,27.73,11.45A42.12,42.12,0,0,1,391.38,69Q391.38,84.91,382.25,96.19ZM367.16,85.76q4.43-5.88,4.43-16.74t-4.43-16.71q-4.44-5.85-12.71-5.85t-12.74,5.85q-4.47,5.86-4.46,16.71t4.46,16.74q4.47,5.89,12.74,5.89T367.16,85.76Z"/><path d="M458.64,41.49q8,10.26,8,26.47,0,16.82-7.94,27.86t-22.17,11.06q-8.94,0-14.36-3.58a28.59,28.59,0,0,1-7-7.41V105H396.73V7.54h18.79V42.22a27.6,27.6,0,0,1,7.88-7.68q5.09-3.3,13-3.3Q450.59,31.24,458.64,41.49ZM442.85,85.43q4-5.88,4-15.48a34.8,34.8,0,0,0-2-12.71q-3.76-9.52-13.89-9.53T416.91,57a35.12,35.12,0,0,0-2,12.84q0,9.27,4.1,15.36t12.51,6.08A12.93,12.93,0,0,0,442.85,85.43Z"/><path d="M521.51,34.28a28.44,28.44,0,0,1,11.91,10.65,36.47,36.47,0,0,1,5.49,14.89,98,98,0,0,1,.6,14.3H490.14Q490.53,85,497,89.34a16,16,0,0,0,9.39,2.71,13.49,13.49,0,0,0,9.46-3.31,15.49,15.49,0,0,0,3.51-5h19.26q-.74,6.42-6.69,13-9.25,10.52-25.93,10.52a36.58,36.58,0,0,1-24.29-8.87q-10.53-8.86-10.53-28.85,0-18.73,9.5-28.72t24.65-10A37.84,37.84,0,0,1,521.51,34.28ZM495.13,50.56q-3.6,4.09-4.53,11.12h29.32q-.46-7.49-4.54-11.35a14.06,14.06,0,0,0-10.09-3.87Q498.75,46.46,495.13,50.56Z"/><path d="M576,61.08a29.47,29.47,0,0,0,7.48-1.65q4-1.73,4-5.36,0-4.44-3.08-6.13t-9-1.68q-6.69,0-9.46,3.31a13.64,13.64,0,0,0-2.65,6.61h-18.2q.6-9.45,5.3-15.55,7.47-9.53,25.67-9.53a45.62,45.62,0,0,1,21,4.7q9.21,4.7,9.2,17.74V86.62q0,3.45.14,8.34.2,3.71,1.12,5a6.75,6.75,0,0,0,2.78,2.19V105H589.8a20.58,20.58,0,0,1-1.18-4.11c-.23-1.28-.4-2.73-.54-4.36a38.83,38.83,0,0,1-9,7.21,27,27,0,0,1-13.76,3.51q-9.8,0-16.18-5.6t-6.39-15.85q0-13.29,10.26-19.25,5.63-3.24,16.54-4.63Zm11.45,8.8a20.29,20.29,0,0,1-3.6,1.82,29,29,0,0,1-5,1.29l-4.24.8c-4,.7-6.81,1.56-8.53,2.58a8.66,8.66,0,0,0-4.37,8c0,3.22.89,5.54,2.68,7a10.12,10.12,0,0,0,6.52,2.15,19.17,19.17,0,0,0,11.22-3.58q5.11-3.57,5.32-13Z"/><path d="M610.11,46.92V33.49h10V13.37h18.67V33.49h11.71V46.92H638.83V85q0,4.42,1.12,5.52c.75.73,3,1.09,6.88,1.09l1.82,0c.64,0,1.27-.05,1.89-.1v14.1l-8.93.33q-13.38.47-18.27-4.63-3.18-3.24-3.18-10V46.92Z"/><path d="M684.62,65.32V53.54l-8.08,3V68.23l-9.19,3.37V59.82l-8.34,3V51.68l8.34-3V32.49l-8.34,3V24.42l8.34-3V9.66l9.19-3.31V18.07l8.08-3V3.38L693.82,0V11.78l8.33-3V19.85l-8.33,3V39l8.33-3V47.18l-8.33,3V61.94Zm0-23V26.21l-8.08,3V45.33Z"/></g></g></svg>