<?xml version="1.0" standalone="no"?>
<!DOCTYPE svg PUBLIC "-//W3C//DTD SVG 20010904//EN"
 "http://www.w3.org/TR/2001/REC-SVG-20010904/DTD/svg10.dtd">
<svg version="1.0" xmlns="http://www.w3.org/2000/svg"
 width="700.000000pt" height="700.000000pt" viewBox="0 0 700.000000 700.000000"
 preserveAspectRatio="xMidYMid meet">
<metadata>
Created by potrace 1.11, written by Peter Selinger 2001-2013
</metadata>
<g transform="translate(0.000000,700.000000) scale(0.100000,-0.100000)"
fill="#000000" stroke="none">
<path d="M2055 6986 c-305 -50 -556 -247 -673 -528 -60 -145 -62 -169 -62
-807 l0 -580 -121 -62 c-640 -326 -1064 -920 -1175 -1644 -22 -147 -22 -461 0
-603 76 -486 270 -881 595 -1216 395 -404 896 -633 1454 -663 l117 -6 0 -439
0 -438 1310 0 1310 0 0 438 0 439 118 6 c316 17 620 100 900 247 547 288 957
808 1101 1399 49 199 64 325 64 536 -1 356 -67 642 -223 961 -209 429 -541
765 -969 983 l-120 61 -3 613 -3 612 -29 85 c-116 346 -379 564 -736 610 -139
19 -323 -9 -454 -69 -136 -61 -281 -183 -366 -306 -46 -67 -97 -179 -122 -270
-21 -77 -22 -100 -26 -587 l-3 -508 -439 0 -439 0 -3 508 c-4 480 -5 511 -25
583 -91 323 -336 561 -653 633 -96 22 -233 27 -325 12z m1010 -3266 l0 -655
-222 -3 -223 -2 0 660 0 660 223 -2 222 -3 0 -655z m2625 0 l0 -660 -220 0
-220 0 0 660 0 660 220 0 220 0 0 -660z"/>
</g>
</svg>
